<?xml version="1.0" encoding="UTF-8"?>
<svg xmlns="http://www.w3.org/2000/svg" xmlns:xlink="http://www.w3.org/1999/xlink" width="37.5pt" height="37.499999pt" viewBox="0 0 37.5 37.499999" version="1.2">
<g id="surface1">
<path style=" stroke:none;fill-rule:nonzero;fill:rgb(14.509583%,14.509583%,14.509583%);fill-opacity:1;" d="M 18.160156 2.808594 C 17.757812 2.894531 17.34375 3.171875 17.015625 3.136719 C 15.835938 3 15.480469 3.707031 15.183594 4.59375 C 13.933594 8.335938 12.972656 12.144531 12.492188 16.0625 C 12.320312 17.464844 12.703125 17.8125 14.085938 17.5 C 14.257812 17.460938 14.425781 17.398438 14.597656 17.351562 C 15.171875 17.195312 15.4375 16.769531 15.339844 16.242188 C 15.238281 15.726562 15.363281 15.261719 15.460938 14.789062 C 15.699219 13.582031 15.980469 12.382812 16.25 11.179688 C 16.3125 11.144531 16.382812 11.140625 16.453125 11.164062 C 16.5625 12.460938 16.71875 13.757812 16.777344 15.054688 C 16.925781 18.386719 17.730469 21.65625 17.574219 25.027344 C 17.5 26.628906 17.765625 28.257812 17.996094 29.855469 C 18.179688 31.117188 18.085938 32.390625 18.351562 33.636719 C 18.488281 34.269531 18.648438 34.386719 19.171875 34.015625 C 20.210938 33.269531 21.246094 32.496094 20.910156 30.957031 C 20.851562 30.6875 20.882812 30.394531 20.851562 30.113281 C 20.582031 27.488281 20.433594 24.851562 20.265625 22.21875 C 20.082031 19.375 19.890625 16.53125 19.691406 13.683594 C 19.628906 12.734375 19.539062 11.789062 19.453125 10.75 C 19.921875 11.039062 20.0625 11.414062 20.273438 11.726562 C 20.996094 12.773438 21.859375 13.707031 22.6875 14.671875 C 23.953125 16.140625 25.636719 15.511719 26.671875 14.792969 C 26.867188 14.660156 26.976562 14.488281 26.710938 14.300781 C 25.914062 13.734375 25.441406 12.890625 24.894531 12.117188 C 23.328125 9.898438 21.925781 7.578125 20.523438 5.253906 C 20.15625 4.652344 19.796875 4.046875 19.441406 3.441406 C 19.15625 2.945312 18.84375 2.660156 18.160156 2.808594 Z M 16.300781 10.75 C 16.292969 10.734375 16.289062 10.71875 16.273438 10.699219 C 16.289062 10.710938 16.296875 10.726562 16.304688 10.738281 C 16.304688 10.742188 16.300781 10.746094 16.300781 10.75 Z M 16.300781 10.75 "/>
</g>
</svg>
