<?xml version="1.0" encoding="UTF-8"?>
<svg xmlns="http://www.w3.org/2000/svg" xmlns:xlink="http://www.w3.org/1999/xlink" width="37.5pt" height="37.499999pt" viewBox="0 0 37.5 37.499999" version="1.2">
<defs>
<clipPath id="clip1">
  <path d="M 11.25 17 L 12 17 L 12 18 L 11.25 18 Z M 11.25 17 "/>
</clipPath>
<clipPath id="clip2">
  <path d="M 11.25 19 L 12 19 L 12 20 L 11.25 20 Z M 11.25 19 "/>
</clipPath>
<clipPath id="clip3">
  <path d="M 11.25 20 L 12 20 L 12 21 L 11.25 21 Z M 11.25 20 "/>
</clipPath>
<clipPath id="clip4">
  <path d="M 11.25 17 L 12 17 L 12 18 L 11.25 18 Z M 11.25 17 "/>
</clipPath>
<clipPath id="clip5">
  <path d="M 11.25 16 L 12 16 L 12 17 L 11.25 17 Z M 11.25 16 "/>
</clipPath>
<clipPath id="clip6">
  <path d="M 11.25 17 L 12 17 L 12 18 L 11.25 18 Z M 11.25 17 "/>
</clipPath>
<clipPath id="clip7">
  <path d="M 26 17 L 26.25 17 L 26.25 18 L 26 18 Z M 26 17 "/>
</clipPath>
<clipPath id="clip8">
  <path d="M 11.25 11.550781 L 26.25 11.550781 L 26.25 25.800781 L 11.25 25.800781 Z M 11.25 11.550781 "/>
</clipPath>
<clipPath id="clip9">
  <path d="M 20 25 L 21 25 L 21 25.800781 L 20 25.800781 Z M 20 25 "/>
</clipPath>
<clipPath id="clip10">
  <path d="M 19.839844 25.636719 L 20 25.636719 L 20 25.761719 L 19.839844 25.761719 Z M 19.839844 25.636719 "/>
</clipPath>
<clipPath id="clip11">
  <path d="M 18 25 L 19 25 L 19 25.800781 L 18 25.800781 Z M 18 25 "/>
</clipPath>
<clipPath id="clip12">
  <path d="M 18.640625 25.636719 L 18.839844 25.636719 L 18.839844 25.761719 L 18.640625 25.761719 Z M 18.640625 25.636719 "/>
</clipPath>
<clipPath id="clip13">
  <path d="M 18 25 L 19 25 L 19 25.800781 L 18 25.800781 Z M 18 25 "/>
</clipPath>
<clipPath id="clip14">
  <path d="M 19 25 L 20 25 L 20 25.800781 L 19 25.800781 Z M 19 25 "/>
</clipPath>
<clipPath id="clip15">
  <path d="M 19.839844 25.636719 L 20 25.636719 L 20 25.761719 L 19.839844 25.761719 Z M 19.839844 25.636719 "/>
</clipPath>
<clipPath id="clip16">
  <path d="M 19.640625 25.636719 L 19.839844 25.636719 L 19.839844 25.761719 L 19.640625 25.761719 Z M 19.640625 25.636719 "/>
</clipPath>
<clipPath id="clip17">
  <path d="M 19.839844 25.636719 L 20 25.636719 L 20 25.761719 L 19.839844 25.761719 Z M 19.839844 25.636719 "/>
</clipPath>
<clipPath id="clip18">
  <path d="M 19 25 L 20 25 L 20 25.800781 L 19 25.800781 Z M 19 25 "/>
</clipPath>
<clipPath id="clip19">
  <path d="M 8.785156 10.714844 L 29.035156 10.714844 L 29.035156 26.464844 L 8.785156 26.464844 Z M 8.785156 10.714844 "/>
</clipPath>
<clipPath id="clip20">
  <path d="M 2.050781 1.9375 L 35.699219 1.9375 L 35.699219 21.4375 L 2.050781 21.4375 Z M 2.050781 1.9375 "/>
</clipPath>
<clipPath id="clip21">
  <path d="M 1.800781 16.058594 L 35.449219 16.058594 L 35.449219 35.558594 L 1.800781 35.558594 Z M 1.800781 16.058594 "/>
</clipPath>
<clipPath id="clip22">
  <path d="M 11.25 11.25 L 26.25 11.25 L 26.25 26.25 L 11.25 26.25 Z M 11.25 11.25 "/>
</clipPath>
</defs>
<g id="surface1">
<path style=" stroke:none;fill-rule:nonzero;fill:rgb(0%,0%,0%);fill-opacity:1;" d="M 22.191406 22.597656 L 22.195312 22.589844 Z M 22.191406 22.597656 "/>
<path style=" stroke:none;fill-rule:nonzero;fill:rgb(0%,0%,0%);fill-opacity:1;" d="M 22.121094 22.644531 C 22.027344 22.820312 22.128906 22.675781 22.191406 22.597656 C 22.1875 22.589844 22.171875 22.585938 22.121094 22.644531 "/>
<path style=" stroke:none;fill-rule:nonzero;fill:rgb(0%,0%,0%);fill-opacity:1;" d="M 24.027344 22.367188 C 23.996094 22.4375 23.988281 22.464844 23.992188 22.472656 C 24.042969 22.402344 24.070312 22.351562 24.027344 22.367188 "/>
<path style=" stroke:none;fill-rule:nonzero;fill:rgb(0%,0%,0%);fill-opacity:1;" d="M 19.304688 22.925781 L 19.230469 22.921875 C 19.265625 22.921875 19.285156 22.925781 19.304688 22.925781 "/>
<path style=" stroke:none;fill-rule:nonzero;fill:rgb(0%,0%,0%);fill-opacity:1;" d="M 14.175781 17.964844 C 14.183594 17.992188 14.1875 18.015625 14.203125 18.035156 C 14.195312 17.996094 14.1875 17.976562 14.175781 17.964844 "/>
<path style=" stroke:none;fill-rule:nonzero;fill:rgb(0%,0%,0%);fill-opacity:1;" d="M 15.589844 15.640625 L 15.578125 15.6875 C 15.589844 15.660156 15.59375 15.648438 15.589844 15.640625 "/>
<path style=" stroke:none;fill-rule:nonzero;fill:rgb(0%,0%,0%);fill-opacity:1;" d="M 21.234375 23.433594 L 21.246094 23.421875 L 21.234375 23.433594 "/>
<g clip-path="url(#clip1)" clip-rule="nonzero">
<path style=" stroke:none;fill-rule:nonzero;fill:rgb(0%,0%,0%);fill-opacity:1;" d="M 11.65625 17.789062 L 11.652344 17.78125 C 11.644531 17.824219 11.632812 17.878906 11.613281 17.972656 L 11.65625 17.789062 "/>
</g>
<g clip-path="url(#clip2)" clip-rule="nonzero">
<path style=" stroke:none;fill-rule:nonzero;fill:rgb(0%,0%,0%);fill-opacity:1;" d="M 11.328125 19.175781 C 11.320312 19.179688 11.3125 19.207031 11.316406 19.257812 L 11.328125 19.175781 "/>
</g>
<g clip-path="url(#clip3)" clip-rule="nonzero">
<path style=" stroke:none;fill-rule:nonzero;fill:rgb(0%,0%,0%);fill-opacity:1;" d="M 11.910156 20.910156 C 11.894531 20.890625 11.878906 20.867188 11.859375 20.847656 C 11.878906 20.875 11.90625 20.910156 11.910156 20.910156 "/>
<path style=" stroke:none;fill-rule:nonzero;fill:rgb(0%,0%,0%);fill-opacity:1;" d="M 11.835938 20.816406 L 11.859375 20.847656 L 11.835938 20.816406 "/>
</g>
<g clip-path="url(#clip4)" clip-rule="nonzero">
<path style=" stroke:none;fill-rule:nonzero;fill:rgb(0%,0%,0%);fill-opacity:1;" d="M 11.351562 17.703125 C 11.347656 17.613281 11.40625 17.449219 11.386719 17.445312 C 11.375 17.535156 11.332031 17.660156 11.351562 17.703125 "/>
</g>
<path style=" stroke:none;fill-rule:nonzero;fill:rgb(0%,0%,0%);fill-opacity:1;" d="M 24.042969 14.875 L 24.039062 14.871094 L 24.039062 14.875 Z M 24.042969 14.875 "/>
<path style=" stroke:none;fill-rule:nonzero;fill:rgb(0%,0%,0%);fill-opacity:1;" d="M 13.0625 22.164062 C 13.078125 22.183594 13.097656 22.207031 13.113281 22.226562 C 13.101562 22.207031 13.082031 22.1875 13.0625 22.164062 "/>
<path style=" stroke:none;fill-rule:nonzero;fill:rgb(0%,0%,0%);fill-opacity:1;" d="M 24.792969 15.914062 L 24.824219 15.941406 C 24.808594 15.917969 24.800781 15.914062 24.792969 15.914062 "/>
<path style=" stroke:none;fill-rule:nonzero;fill:rgb(0%,0%,0%);fill-opacity:1;" d="M 25.367188 17.058594 C 25.332031 16.972656 25.34375 17.054688 25.34375 17.101562 C 25.355469 17.101562 25.363281 17.09375 25.367188 17.058594 "/>
<path style=" stroke:none;fill-rule:nonzero;fill:rgb(0%,0%,0%);fill-opacity:1;" d="M 17.886719 12.269531 C 17.859375 12.28125 17.855469 12.289062 17.859375 12.292969 C 17.878906 12.289062 17.890625 12.28125 17.886719 12.269531 "/>
<g clip-path="url(#clip5)" clip-rule="nonzero">
<path style=" stroke:none;fill-rule:nonzero;fill:rgb(0%,0%,0%);fill-opacity:1;" d="M 11.785156 16.457031 C 11.796875 16.4375 11.808594 16.414062 11.824219 16.375 C 11.804688 16.410156 11.792969 16.433594 11.785156 16.457031 "/>
<path style=" stroke:none;fill-rule:nonzero;fill:rgb(0%,0%,0%);fill-opacity:1;" d="M 11.859375 16.289062 C 11.875 16.253906 11.894531 16.222656 11.914062 16.191406 L 11.910156 16.1875 C 11.890625 16.21875 11.875 16.253906 11.859375 16.289062 "/>
<path style=" stroke:none;fill-rule:nonzero;fill:rgb(0%,0%,0%);fill-opacity:1;" d="M 11.523438 16.980469 C 11.539062 16.941406 11.558594 16.882812 11.574219 16.847656 C 11.546875 16.898438 11.53125 16.941406 11.523438 16.980469 "/>
</g>
<path style=" stroke:none;fill-rule:nonzero;fill:rgb(0%,0%,0%);fill-opacity:1;" d="M 12.066406 15.835938 L 12.074219 15.824219 L 12.085938 15.789062 Z M 12.066406 15.835938 "/>
<g clip-path="url(#clip6)" clip-rule="nonzero">
<path style=" stroke:none;fill-rule:nonzero;fill:rgb(0%,0%,0%);fill-opacity:1;" d="M 11.386719 17.445312 C 11.390625 17.421875 11.394531 17.402344 11.394531 17.390625 C 11.390625 17.40625 11.382812 17.425781 11.378906 17.449219 L 11.386719 17.445312 "/>
</g>
<path style=" stroke:none;fill-rule:nonzero;fill:rgb(0%,0%,0%);fill-opacity:1;" d="M 13.796875 14.34375 C 13.777344 14.371094 13.773438 14.386719 13.773438 14.394531 C 13.804688 14.375 13.820312 14.355469 13.796875 14.34375 "/>
<g clip-path="url(#clip7)" clip-rule="nonzero">
<path style=" stroke:none;fill-rule:nonzero;fill:rgb(0%,0%,0%);fill-opacity:1;" d="M 26.082031 17.015625 L 26.078125 17.015625 L 26.085938 17.046875 Z M 26.082031 17.015625 "/>
</g>
<path style=" stroke:none;fill-rule:nonzero;fill:rgb(0%,0%,0%);fill-opacity:1;" d="M 25.558594 15.242188 L 25.539062 15.238281 L 25.558594 15.242188 "/>
<path style=" stroke:none;fill-rule:nonzero;fill:rgb(0%,0%,0%);fill-opacity:1;" d="M 25.792969 17.132812 C 25.769531 17.128906 25.773438 17.101562 25.757812 17.105469 C 25.769531 17.117188 25.765625 17.136719 25.792969 17.132812 "/>
<path style=" stroke:none;fill-rule:nonzero;fill:rgb(0%,0%,0%);fill-opacity:1;" d="M 24.59375 15.269531 C 24.597656 15.253906 24.570312 15.257812 24.546875 15.265625 C 24.550781 15.273438 24.5625 15.277344 24.59375 15.269531 "/>
<path style=" stroke:none;fill-rule:nonzero;fill:rgb(0%,0%,0%);fill-opacity:1;" d="M 24.792969 15.738281 L 24.796875 15.734375 Z M 24.792969 15.738281 "/>
<g clip-path="url(#clip8)" clip-rule="nonzero">
<path style=" stroke:none;fill-rule:nonzero;fill:rgb(0%,0%,0%);fill-opacity:1;" d="M 23.941406 14.714844 L 23.957031 14.726562 L 23.953125 14.730469 Z M 23.984375 14.820312 L 23.980469 14.808594 C 23.96875 14.773438 23.988281 14.804688 24.015625 14.84375 Z M 24.035156 14.878906 L 24.023438 14.890625 L 24.003906 14.855469 L 24.027344 14.867188 Z M 19.558594 25.09375 C 19.558594 25.117188 19.542969 25.140625 19.535156 25.140625 L 19.539062 25.113281 C 19.519531 25.121094 19.496094 25.097656 19.488281 25.109375 L 19.488281 25.089844 L 19.542969 25.089844 Z M 19.386719 25.054688 L 19.390625 25.039062 L 19.417969 25.039062 L 19.421875 25.054688 Z M 12.796875 19.671875 C 12.859375 19.683594 12.71875 19.476562 12.757812 19.492188 L 12.726562 19.476562 C 12.71875 19.40625 12.683594 19.238281 12.707031 19.261719 C 12.6875 19.214844 12.667969 19.167969 12.652344 19.125 L 12.671875 19.109375 C 12.660156 19.015625 12.640625 18.863281 12.640625 18.71875 C 12.636719 18.578125 12.652344 18.445312 12.675781 18.394531 C 12.675781 18.199219 12.699219 17.960938 12.746094 17.707031 C 12.753906 17.765625 12.761719 17.847656 12.769531 17.96875 C 12.738281 18.070312 12.769531 18.324219 12.832031 18.613281 C 12.894531 18.902344 12.988281 19.226562 13.042969 19.507812 C 13.007812 19.449219 12.898438 19.039062 12.929688 19.15625 C 12.976562 19.441406 13.082031 19.679688 13.183594 19.914062 L 13.128906 19.847656 C 13.199219 20.046875 13.269531 20.242188 13.347656 20.433594 C 13.324219 20.402344 13.308594 20.382812 13.296875 20.375 C 13.3125 20.394531 13.332031 20.414062 13.347656 20.4375 C 13.371094 20.492188 13.394531 20.546875 13.414062 20.601562 C 13.378906 20.527344 13.386719 20.484375 13.242188 20.332031 C 13.261719 20.351562 13.277344 20.355469 13.296875 20.375 C 13.074219 20.101562 12.960938 19.957031 12.796875 19.671875 Z M 23.851562 14.53125 C 23.835938 14.5 23.824219 14.472656 23.8125 14.449219 C 23.851562 14.449219 23.875 14.46875 23.898438 14.488281 Z M 23.863281 14.5625 L 23.886719 14.550781 L 23.882812 14.597656 Z M 16.472656 23.445312 L 16.351562 23.414062 C 16.679688 23.523438 16.957031 23.640625 17.210938 23.75 C 17.390625 23.886719 17.601562 24.03125 17.832031 24.152344 C 17.824219 24.167969 17.785156 24.199219 17.664062 24.191406 C 17.542969 24.160156 17.578125 24.132812 17.542969 24.113281 L 17.453125 24.160156 C 17.28125 24.121094 17.101562 24.085938 16.945312 24.035156 C 16.792969 23.984375 16.664062 23.917969 16.511719 23.8125 C 16.367188 23.707031 16.214844 23.566406 16.0625 23.425781 C 15.960938 23.335938 15.871094 23.246094 15.777344 23.15625 C 16.0625 23.273438 16.371094 23.371094 16.472656 23.445312 Z M 13.859375 16.089844 C 13.9375 16.042969 13.785156 16.335938 13.726562 16.582031 C 13.703125 16.621094 13.683594 16.660156 13.664062 16.699219 C 13.691406 16.519531 13.742188 16.335938 13.859375 16.089844 Z M 24.480469 18.871094 C 24.480469 18.894531 24.476562 18.917969 24.472656 18.949219 C 24.476562 18.921875 24.476562 18.898438 24.480469 18.871094 Z M 14.15625 17.867188 C 14.128906 17.957031 14.15625 17.9375 14.175781 17.964844 C 14.152344 17.84375 14.234375 17.710938 14.261719 17.773438 C 14.242188 17.597656 14.222656 17.835938 14.203125 17.726562 C 14.203125 17.644531 14.214844 17.5625 14.230469 17.476562 C 14.191406 17.5 14.167969 17.59375 14.164062 17.453125 C 14.175781 17.332031 14.195312 17.277344 14.25 17.128906 C 14.257812 17.15625 14.316406 17.097656 14.277344 17.210938 C 14.3125 17.140625 14.355469 17.03125 14.34375 16.972656 C 14.242188 17.128906 14.429688 16.6875 14.328125 16.789062 L 14.4375 16.632812 C 14.417969 16.671875 14.4375 16.6875 14.402344 16.742188 C 14.472656 16.714844 14.457031 16.597656 14.480469 16.535156 C 14.511719 16.496094 14.566406 16.398438 14.601562 16.351562 C 14.566406 16.472656 14.53125 16.597656 14.503906 16.722656 C 14.417969 17.085938 14.371094 17.453125 14.394531 17.828125 L 14.371094 17.839844 C 14.355469 17.953125 14.367188 17.984375 14.375 18.101562 L 14.367188 18.097656 C 14.367188 18.203125 14.371094 18.320312 14.382812 18.429688 C 14.269531 18.140625 14.183594 18.101562 14.101562 17.917969 C 14.117188 17.859375 14.136719 17.84375 14.15625 17.867188 Z M 14.082031 15.820312 L 14.105469 15.820312 C 14.09375 15.84375 14.078125 15.867188 14.066406 15.890625 C 14.003906 15.980469 13.957031 16.097656 13.957031 16.132812 C 13.996094 16.046875 14.039062 15.960938 14.089844 15.878906 C 14.015625 16.097656 13.882812 16.308594 13.742188 16.554688 L 13.734375 16.566406 C 13.796875 16.414062 13.832031 16.324219 13.875 16.214844 C 13.917969 16.117188 13.964844 16 14.082031 15.820312 Z M 21.414062 23.382812 C 21.367188 23.40625 21.316406 23.425781 21.265625 23.445312 L 21.234375 23.433594 L 21.207031 23.457031 L 21.113281 23.421875 C 21.074219 23.4375 20.847656 23.457031 20.773438 23.496094 C 20.757812 23.484375 20.59375 23.476562 20.722656 23.464844 C 20.507812 23.460938 20.300781 23.449219 20.089844 23.421875 L 20.1875 23.445312 C 20.195312 23.476562 20 23.484375 19.902344 23.453125 C 20.035156 23.445312 19.921875 23.410156 19.871094 23.378906 C 19.78125 23.382812 19.941406 23.417969 19.890625 23.425781 C 19.835938 23.429688 19.75 23.421875 19.671875 23.414062 C 19.59375 23.402344 19.523438 23.386719 19.496094 23.375 L 19.5625 23.375 C 19.414062 23.355469 19.359375 23.292969 19.21875 23.253906 C 19.085938 23.242188 19 23.195312 19.011719 23.25 C 18.824219 23.199219 18.953125 23.195312 18.894531 23.167969 C 18.800781 23.167969 18.558594 23.058594 18.539062 23.019531 C 18.476562 23.035156 18.359375 22.980469 18.253906 22.917969 C 18.148438 22.863281 18.054688 22.804688 18.023438 22.820312 L 17.90625 22.714844 C 17.894531 22.726562 17.84375 22.75 17.730469 22.6875 C 17.699219 22.65625 17.683594 22.636719 17.675781 22.625 C 17.703125 22.628906 17.734375 22.632812 17.761719 22.636719 L 17.75 22.660156 C 18.003906 22.742188 18.417969 22.820312 18.753906 22.855469 L 18.703125 22.859375 C 19.078125 22.871094 19.058594 22.921875 19.332031 22.917969 L 19.304688 22.925781 C 19.386719 22.929688 19.46875 22.933594 19.546875 22.933594 L 19.492188 22.957031 C 19.675781 22.914062 20.011719 23.019531 19.902344 22.980469 C 19.957031 22.96875 20.039062 22.949219 20.101562 22.933594 C 20.199219 22.945312 20.289062 22.953125 20.371094 22.949219 C 20.289062 22.945312 20.210938 22.9375 20.136719 22.925781 L 20.167969 22.914062 C 20.234375 22.914062 20.300781 22.914062 20.371094 22.914062 C 20.378906 22.917969 20.398438 22.921875 20.441406 22.921875 C 20.503906 22.917969 20.550781 22.910156 20.589844 22.902344 C 20.617188 22.898438 20.640625 22.898438 20.667969 22.894531 C 20.761719 22.882812 20.847656 22.863281 20.925781 22.847656 L 20.921875 22.871094 C 21.042969 22.847656 21.117188 22.820312 21.285156 22.78125 L 21.238281 22.800781 C 21.503906 22.695312 21.601562 22.78125 21.792969 22.621094 C 21.914062 22.601562 22.125 22.503906 22.132812 22.546875 C 22.195312 22.515625 22.253906 22.480469 22.3125 22.449219 C 22.191406 22.667969 22.199219 22.617188 22.191406 22.597656 C 22.089844 22.769531 22.054688 22.839844 22.007812 22.921875 C 21.960938 23 21.90625 23.097656 21.726562 23.257812 C 21.78125 23.183594 21.832031 23.113281 21.875 23.035156 C 21.777344 23.167969 21.695312 23.25 21.601562 23.332031 L 21.597656 23.332031 L 21.601562 23.332031 L 21.578125 23.351562 L 21.535156 23.386719 C 21.488281 23.390625 21.4375 23.390625 21.414062 23.382812 Z M 16.132812 14.113281 L 16.160156 14.109375 C 16.121094 14.128906 16.082031 14.152344 16.042969 14.175781 C 16.070312 14.152344 16.101562 14.132812 16.132812 14.113281 Z M 18.875 13.34375 L 18.863281 13.363281 C 18.824219 13.367188 18.785156 13.371094 18.746094 13.375 C 18.789062 13.363281 18.832031 13.351562 18.875 13.34375 Z M 18.984375 13.351562 L 18.976562 13.351562 L 18.988281 13.347656 Z M 15.238281 16.976562 L 15.257812 16.976562 L 15.25 17.015625 Z M 19.226562 14.195312 L 19.199219 14.164062 L 19.34375 14.101562 C 19.34375 14.109375 19.367188 14.105469 19.347656 14.117188 C 19.410156 14.109375 19.496094 14.070312 19.554688 14.042969 C 19.617188 14.011719 19.664062 13.996094 19.6875 14.007812 C 19.652344 13.980469 19.640625 14.007812 19.585938 14.027344 C 19.539062 14.03125 19.53125 14.023438 19.554688 14.003906 C 19.578125 13.984375 19.628906 13.964844 19.667969 13.96875 L 19.667969 13.976562 L 19.710938 13.957031 C 19.714844 13.984375 19.75 14.003906 19.75 14.035156 C 19.859375 14.058594 20.089844 14.179688 20.257812 14.269531 C 20.382812 14.335938 20.503906 14.414062 20.632812 14.507812 C 20.511719 14.484375 20.390625 14.464844 20.265625 14.457031 C 20.125 14.378906 20.0625 14.429688 19.53125 14.398438 L 19.570312 14.433594 C 19.261719 14.445312 18.953125 14.46875 18.640625 14.488281 C 18.597656 14.492188 18.554688 14.496094 18.511719 14.5 C 18.75 14.398438 18.992188 14.292969 19.226562 14.195312 Z M 17.046875 17.894531 C 17.054688 17.921875 17.0625 17.945312 17.082031 17.964844 C 17.105469 17.957031 17.078125 17.933594 17.097656 17.929688 L 17.105469 17.9375 C 17.089844 17.96875 17.078125 18 17.0625 18.03125 C 17.042969 17.992188 17.035156 17.957031 17.042969 17.9375 L 17.039062 17.933594 Z M 21.75 19.3125 C 21.800781 19.242188 21.84375 19.164062 21.878906 19.089844 L 21.886719 19.089844 C 21.890625 19.109375 21.898438 19.128906 21.902344 19.148438 L 21.90625 19.175781 C 21.878906 19.203125 21.851562 19.226562 21.828125 19.261719 C 21.804688 19.269531 21.832031 19.246094 21.835938 19.230469 C 21.808594 19.269531 21.78125 19.292969 21.75 19.3125 Z M 19.8125 21.589844 C 19.4375 21.574219 19.023438 21.484375 18.660156 21.367188 C 18.59375 21.332031 18.339844 21.246094 18.019531 21.125 C 17.863281 21.070312 17.699219 21.007812 17.546875 20.945312 C 17.394531 20.828125 17.214844 20.675781 17.078125 20.578125 C 17.054688 20.496094 17.046875 20.476562 16.917969 20.308594 C 16.816406 20.199219 16.796875 20.1875 16.746094 20.167969 C 16.699219 20.101562 16.621094 20.011719 16.5625 19.941406 C 16.550781 19.878906 16.542969 19.816406 16.535156 19.75 C 16.691406 19.964844 16.871094 20.171875 17.078125 20.359375 C 17.273438 20.53125 17.488281 20.6875 17.726562 20.816406 C 17.964844 20.941406 18.222656 21.03125 18.484375 21.089844 C 19.007812 21.199219 19.535156 21.160156 19.992188 21.058594 C 20.25 20.988281 20.765625 20.824219 21.148438 20.660156 C 21.289062 20.609375 21.433594 20.554688 21.578125 20.480469 C 21.6875 20.417969 21.800781 20.339844 21.90625 20.246094 C 21.898438 20.285156 21.882812 20.339844 21.859375 20.433594 L 21.847656 20.417969 C 21.8125 20.550781 21.765625 20.675781 21.703125 20.792969 C 21.6875 20.761719 21.578125 20.96875 21.371094 21.140625 C 21.167969 21.316406 20.867188 21.445312 20.730469 21.46875 C 20.515625 21.542969 20.183594 21.605469 19.8125 21.589844 Z M 15.585938 16.082031 C 15.441406 16.363281 15.339844 16.667969 15.261719 16.972656 C 15.246094 16.9375 15.238281 16.90625 15.230469 16.871094 C 15.242188 16.820312 15.253906 16.769531 15.269531 16.71875 C 15.257812 16.738281 15.253906 16.757812 15.242188 16.773438 C 15.238281 16.671875 15.226562 16.609375 15.246094 16.492188 L 15.273438 16.539062 C 15.277344 16.402344 15.300781 16.320312 15.328125 16.246094 C 15.339844 16.210938 15.351562 16.171875 15.363281 16.128906 C 15.371094 16.097656 15.378906 16.0625 15.386719 16.023438 L 15.402344 15.980469 L 15.402344 16.019531 C 15.402344 15.996094 15.40625 15.976562 15.410156 15.957031 C 15.421875 15.921875 15.4375 15.886719 15.453125 15.851562 L 15.476562 15.820312 C 15.5 15.785156 15.527344 15.75 15.550781 15.652344 L 15.5625 15.632812 L 15.589844 15.640625 L 15.625 15.539062 L 15.660156 15.566406 C 15.65625 15.542969 15.65625 15.523438 15.65625 15.5 L 15.695312 15.464844 L 15.714844 15.429688 L 15.726562 15.425781 L 15.730469 15.410156 L 15.757812 15.367188 C 15.878906 15.3125 15.9375 15.160156 16.09375 15.089844 L 16.03125 15.070312 C 16.042969 15.050781 16.0625 15.03125 16.074219 15.007812 C 16.144531 14.949219 16.214844 14.890625 16.292969 14.835938 C 16.433594 14.738281 16.585938 14.648438 16.742188 14.5625 C 16.691406 14.617188 16.640625 14.671875 16.597656 14.730469 C 16.5 14.855469 16.425781 14.988281 16.355469 15.117188 C 16.109375 15.300781 15.898438 15.535156 15.746094 15.78125 L 15.695312 15.800781 C 15.652344 15.894531 15.617188 15.988281 15.585938 16.082031 Z M 15.816406 14.335938 C 15.851562 14.308594 15.882812 14.285156 15.917969 14.261719 L 15.894531 14.289062 C 15.835938 14.328125 15.695312 14.449219 15.667969 14.449219 L 15.671875 14.441406 L 15.679688 14.429688 C 15.726562 14.394531 15.773438 14.363281 15.816406 14.335938 Z M 21.558594 13 C 21.683594 13.042969 21.796875 13.09375 21.910156 13.15625 L 21.90625 13.160156 L 21.917969 13.160156 C 22.011719 13.214844 22.097656 13.269531 22.183594 13.335938 L 22.1875 13.339844 C 22.054688 13.277344 21.882812 13.167969 21.808594 13.183594 C 21.976562 13.308594 22.03125 13.25 22.191406 13.363281 C 22.191406 13.390625 22.1875 13.417969 22.171875 13.433594 L 22.167969 13.433594 C 21.996094 13.34375 21.765625 13.265625 21.65625 13.195312 C 21.675781 13.214844 21.679688 13.234375 21.660156 13.238281 L 21.632812 13.226562 C 21.578125 13.1875 21.515625 13.148438 21.460938 13.113281 C 21.414062 13.085938 21.375 13.058594 21.347656 13.03125 C 21.398438 13.042969 21.445312 13.054688 21.46875 13.050781 C 21.433594 13.042969 21.382812 13.03125 21.335938 13.019531 L 21.308594 12.976562 C 21.34375 12.980469 21.371094 12.988281 21.378906 12.996094 C 21.359375 12.984375 21.347656 12.976562 21.339844 12.96875 C 21.367188 12.976562 21.386719 12.984375 21.40625 12.992188 L 21.410156 12.992188 C 21.4375 13.003906 21.460938 13.015625 21.472656 13.027344 C 21.671875 13.082031 21.5 13 21.558594 13 Z M 15.390625 22.140625 C 15.21875 22.03125 15.101562 21.90625 15.089844 21.839844 C 15.144531 21.863281 15.164062 21.855469 15.269531 21.949219 L 15.257812 21.953125 C 15.441406 22.050781 15.367188 22.003906 15.269531 21.933594 C 15.191406 21.875 15.097656 21.789062 15.117188 21.773438 C 15.082031 21.757812 15.007812 21.691406 14.929688 21.601562 C 14.824219 21.480469 14.71875 21.308594 14.660156 21.195312 L 14.65625 21.292969 C 14.378906 20.957031 14.414062 20.941406 14.457031 20.941406 C 14.5 20.929688 14.550781 20.929688 14.371094 20.535156 C 14.136719 20.023438 14.4375 20.738281 14.277344 20.429688 C 14.210938 20.238281 14.175781 20.105469 14.128906 19.941406 C 14.191406 20.03125 14.242188 20.113281 14.234375 20.140625 C 14.238281 20.113281 14.269531 20.101562 14.355469 20.21875 C 14.34375 20.328125 14.617188 20.515625 14.746094 20.707031 C 14.714844 20.699219 14.597656 20.574219 14.628906 20.609375 C 14.691406 20.710938 14.785156 20.765625 14.875 20.824219 L 14.832031 20.820312 C 14.941406 20.917969 15.054688 21.007812 15.164062 21.097656 C 15.21875 21.203125 15.28125 21.316406 15.335938 21.410156 C 15.460938 21.605469 15.628906 21.828125 15.816406 22.054688 L 15.8125 22.054688 C 15.800781 22.050781 15.769531 22.039062 15.917969 22.289062 L 15.921875 22.242188 C 15.972656 22.332031 16.023438 22.417969 16.074219 22.496094 C 16.015625 22.480469 15.933594 22.445312 15.78125 22.375 C 15.835938 22.390625 15.945312 22.425781 15.992188 22.449219 C 15.796875 22.359375 15.566406 22.257812 15.390625 22.140625 Z M 24.253906 22.105469 L 24.242188 22.121094 L 24.210938 22.121094 L 24.214844 22.171875 C 24.109375 22.34375 24.003906 22.488281 23.992188 22.472656 C 23.894531 22.621094 23.664062 22.835938 23.667969 22.871094 L 23.65625 22.816406 C 23.664062 22.851562 23.5625 22.992188 23.390625 23.144531 C 23.34375 23.183594 23.292969 23.226562 23.238281 23.265625 C 23.488281 22.953125 23.753906 22.582031 24 22.175781 C 24.246094 21.769531 24.457031 21.324219 24.601562 20.914062 C 24.609375 20.742188 24.664062 20.511719 24.695312 20.273438 C 24.695312 20.402344 24.6875 20.53125 24.675781 20.675781 C 24.601562 20.710938 24.671875 20.738281 24.605469 20.902344 L 24.644531 20.898438 C 24.585938 21.292969 24.40625 21.710938 24.261719 22.089844 Z M 23.855469 14.539062 L 23.875 14.546875 L 23.859375 14.554688 Z M 19.441406 25.074219 L 19.445312 25.054688 L 19.429688 25.074219 L 19.421875 25.039062 C 19.449219 25.039062 19.472656 25.039062 19.476562 25.050781 L 19.480469 25.070312 C 19.464844 25.074219 19.472656 25.054688 19.441406 25.074219 Z M 19.488281 25.074219 C 19.503906 25.082031 19.507812 25.085938 19.488281 25.089844 Z M 26.214844 17.753906 C 26.214844 17.773438 26.246094 17.804688 26.253906 17.816406 C 26.234375 17.761719 26.234375 17.78125 26.222656 17.726562 C 26.214844 17.722656 26.203125 17.726562 26.191406 17.699219 L 26.199219 17.6875 L 26.179688 17.660156 C 26.183594 17.652344 26.203125 17.671875 26.195312 17.640625 L 26.171875 17.644531 C 26.171875 17.628906 26.1875 17.644531 26.175781 17.621094 C 26.191406 17.628906 26.1875 17.609375 26.207031 17.640625 C 26.207031 17.597656 26.171875 17.582031 26.148438 17.554688 L 26.160156 17.558594 L 26.136719 17.535156 C 26.136719 17.511719 26.15625 17.546875 26.160156 17.539062 L 26.148438 17.507812 L 26.148438 17.503906 L 26.140625 17.484375 L 26.175781 17.496094 L 26.140625 17.46875 C 26.152344 17.46875 26.144531 17.433594 26.164062 17.453125 L 26.140625 17.402344 L 26.160156 17.390625 L 26.148438 17.398438 C 26.148438 17.375 26.078125 17.332031 26.128906 17.324219 C 26.09375 17.289062 26.097656 17.273438 26.066406 17.226562 C 26.105469 17.257812 26.082031 17.171875 26.105469 17.207031 C 26.109375 17.179688 26.078125 17.183594 26.066406 17.167969 C 26.070312 17.144531 26.101562 17.140625 26.121094 17.15625 L 26.097656 17.140625 L 26.105469 17.136719 L 26.082031 17.125 C 26.089844 17.097656 26.109375 17.109375 26.105469 17.085938 L 26.078125 17.089844 L 26.089844 17.070312 L 26.0625 17.054688 L 26.066406 17.050781 L 26.054688 17.035156 C 26.078125 17.046875 26.054688 17.015625 26.078125 17.015625 C 26.074219 17 26.074219 17 26.058594 16.972656 L 26.039062 16.984375 C 26.011719 16.953125 26.070312 16.972656 26.0625 16.9375 L 26.039062 16.949219 C 26.0625 16.886719 25.988281 16.882812 26.003906 16.839844 L 26.035156 16.84375 C 26.015625 16.816406 26.007812 16.765625 25.964844 16.753906 C 25.996094 16.722656 26.007812 16.714844 26.015625 16.679688 C 26.003906 16.65625 26 16.65625 25.972656 16.65625 C 25.980469 16.628906 25.945312 16.601562 25.972656 16.585938 C 25.949219 16.589844 25.972656 16.5625 25.945312 16.5625 L 25.957031 16.554688 L 25.929688 16.566406 C 25.980469 16.5 25.867188 16.523438 25.910156 16.457031 L 25.917969 16.460938 L 25.902344 16.449219 L 25.941406 16.4375 L 25.917969 16.359375 L 25.902344 16.382812 C 25.890625 16.371094 25.859375 16.375 25.871094 16.347656 C 25.929688 16.355469 25.863281 16.320312 25.894531 16.300781 L 25.914062 16.308594 C 25.902344 16.289062 25.902344 16.289062 25.871094 16.304688 C 25.851562 16.285156 25.925781 16.257812 25.878906 16.246094 L 25.886719 16.265625 L 25.835938 16.269531 L 25.855469 16.253906 C 25.835938 16.238281 25.835938 16.195312 25.820312 16.195312 L 25.863281 16.171875 C 25.8125 16.136719 25.859375 16.144531 25.808594 16.113281 L 25.828125 16.105469 L 25.800781 16.101562 L 25.828125 16.054688 L 25.808594 16.078125 C 25.796875 16.0625 25.78125 16.0625 25.785156 16.035156 L 25.816406 16.027344 C 25.78125 15.992188 25.839844 15.953125 25.785156 15.933594 L 25.804688 15.929688 C 25.742188 15.914062 25.84375 15.871094 25.769531 15.863281 L 25.800781 15.847656 L 25.773438 15.839844 L 25.816406 15.820312 L 25.75 15.835938 L 25.785156 15.804688 L 25.761719 15.808594 C 25.832031 15.746094 25.761719 15.75 25.808594 15.695312 L 25.757812 15.726562 C 25.621094 15.71875 25.75 15.542969 25.660156 15.496094 L 25.703125 15.472656 L 25.636719 15.46875 C 25.660156 15.433594 25.679688 15.457031 25.695312 15.441406 C 25.65625 15.417969 25.628906 15.460938 25.597656 15.429688 C 25.613281 15.390625 25.628906 15.417969 25.648438 15.417969 C 25.609375 15.394531 25.558594 15.351562 25.570312 15.3125 L 25.550781 15.320312 C 25.519531 15.308594 25.519531 15.265625 25.503906 15.242188 C 25.523438 15.230469 25.53125 15.234375 25.539062 15.238281 C 25.535156 15.226562 25.539062 15.207031 25.515625 15.210938 L 25.558594 15.199219 C 25.554688 15.171875 25.496094 15.152344 25.539062 15.125 C 25.523438 15.136719 25.488281 15.152344 25.480469 15.136719 C 25.539062 15.085938 25.425781 15.105469 25.441406 15.054688 L 25.472656 15.0625 C 25.484375 15.035156 25.445312 15.042969 25.417969 15.042969 L 25.445312 15.03125 L 25.367188 14.988281 C 25.425781 14.9375 25.320312 14.933594 25.367188 14.910156 C 25.355469 14.886719 25.351562 14.945312 25.328125 14.921875 C 25.347656 14.898438 25.296875 14.90625 25.339844 14.878906 L 25.34375 14.878906 L 25.328125 14.863281 L 25.378906 14.847656 C 25.355469 14.835938 25.308594 14.851562 25.277344 14.871094 C 25.289062 14.839844 25.253906 14.828125 25.285156 14.796875 L 25.296875 14.796875 C 25.25 14.761719 25.355469 14.648438 25.261719 14.660156 L 25.277344 14.652344 L 25.261719 14.625 L 25.296875 14.609375 L 25.214844 14.597656 L 25.234375 14.582031 C 25.21875 14.546875 25.171875 14.511719 25.136719 14.476562 L 25.148438 14.476562 C 25.085938 14.457031 25.132812 14.425781 25.089844 14.410156 L 25.097656 14.40625 L 25.074219 14.382812 L 25.097656 14.375 C 25.042969 14.382812 25.101562 14.28125 25.078125 14.316406 C 25.050781 14.320312 25.015625 14.316406 24.988281 14.328125 C 24.960938 14.300781 25.007812 14.304688 25.007812 14.277344 C 24.988281 14.253906 24.957031 14.273438 24.945312 14.234375 L 24.964844 14.222656 C 24.949219 14.210938 24.929688 14.210938 24.910156 14.195312 L 24.925781 14.195312 C 24.859375 14.195312 24.945312 14.121094 24.847656 14.152344 C 24.847656 14.132812 24.816406 14.117188 24.851562 14.09375 C 24.796875 14.074219 24.757812 14.054688 24.714844 14.027344 C 24.761719 13.980469 24.703125 14.023438 24.714844 13.976562 L 24.6875 14 C 24.636719 13.953125 24.652344 13.839844 24.585938 13.796875 L 24.613281 13.773438 L 24.570312 13.785156 C 24.527344 13.714844 24.464844 13.632812 24.421875 13.585938 C 24.390625 13.582031 24.339844 13.582031 24.324219 13.550781 L 24.328125 13.550781 C 24.273438 13.519531 24.21875 13.484375 24.191406 13.429688 L 24.21875 13.410156 C 24.179688 13.421875 24.191406 13.382812 24.179688 13.375 L 24.175781 13.402344 C 24.136719 13.410156 24.140625 13.371094 24.152344 13.351562 L 24.105469 13.351562 L 24.113281 13.339844 L 24.097656 13.347656 L 24.117188 13.308594 C 24.105469 13.308594 24.070312 13.289062 24.03125 13.308594 C 24.039062 13.296875 24.027344 13.269531 24.050781 13.28125 L 23.984375 13.199219 L 23.984375 13.21875 C 23.960938 13.242188 23.925781 13.234375 23.925781 13.210938 C 23.957031 13.210938 23.957031 13.183594 23.96875 13.160156 C 23.945312 13.164062 23.957031 13.1875 23.9375 13.195312 C 23.910156 13.195312 23.875 13.175781 23.878906 13.160156 L 23.894531 13.160156 C 23.867188 13.152344 23.898438 13.109375 23.878906 13.09375 C 23.84375 13.09375 23.851562 13.070312 23.816406 13.105469 C 23.785156 13.09375 23.832031 13.074219 23.828125 13.066406 C 23.800781 13.070312 23.777344 13.03125 23.792969 13.007812 C 23.726562 13.046875 23.75 12.933594 23.699219 12.972656 L 23.703125 12.929688 C 23.691406 12.941406 23.660156 12.964844 23.640625 12.957031 C 23.636719 12.929688 23.664062 12.914062 23.667969 12.898438 L 23.617188 12.933594 C 23.578125 12.808594 23.429688 12.746094 23.363281 12.632812 C 23.308594 12.605469 23.234375 12.582031 23.1875 12.539062 L 23.199219 12.539062 L 23.15625 12.488281 L 23.179688 12.535156 L 23.136719 12.523438 C 23.09375 12.464844 23.027344 12.390625 22.9375 12.363281 C 22.855469 12.378906 22.9375 12.300781 22.867188 12.304688 L 22.886719 12.296875 C 22.824219 12.28125 22.789062 12.269531 22.722656 12.265625 C 22.757812 12.226562 22.6875 12.246094 22.707031 12.226562 L 22.691406 12.242188 C 22.6875 12.222656 22.664062 12.203125 22.675781 12.195312 L 22.640625 12.203125 L 22.652344 12.183594 C 22.621094 12.164062 22.546875 12.144531 22.554688 12.097656 C 22.460938 12.082031 22.34375 12.015625 22.25 11.964844 C 22.226562 11.96875 22.199219 11.957031 22.175781 11.949219 L 22.164062 11.917969 C 22.136719 11.914062 22.097656 11.929688 22.082031 11.90625 L 22.085938 11.902344 C 22.0625 11.898438 22.046875 11.878906 22.015625 11.886719 C 21.988281 11.875 21.96875 11.855469 21.984375 11.839844 C 21.96875 11.871094 21.933594 11.816406 21.933594 11.816406 C 21.933594 11.816406 21.847656 11.78125 21.714844 11.734375 C 21.582031 11.691406 21.394531 11.640625 21.191406 11.617188 C 20.785156 11.554688 20.335938 11.632812 20.179688 11.695312 L 20.152344 11.710938 C 20.128906 11.714844 20.117188 11.710938 20.109375 11.714844 C 20.144531 11.714844 20.101562 11.726562 20.132812 11.730469 L 20.113281 11.730469 L 20.136719 11.730469 L 20.140625 11.722656 L 20.175781 11.726562 C 20.1875 11.722656 20.199219 11.707031 20.234375 11.707031 L 20.226562 11.710938 C 20.253906 11.707031 20.242188 11.714844 20.25 11.714844 L 20.242188 11.714844 L 20.269531 11.71875 C 20.25 11.714844 20.21875 11.726562 20.234375 11.726562 C 20.273438 11.722656 20.226562 11.722656 20.253906 11.71875 L 20.265625 11.726562 L 20.292969 11.722656 L 20.285156 11.730469 L 20.324219 11.71875 L 20.382812 11.722656 C 20.355469 11.726562 20.382812 11.726562 20.378906 11.730469 L 20.445312 11.734375 L 20.441406 11.738281 L 20.464844 11.734375 L 20.515625 11.746094 C 20.558594 11.753906 20.535156 11.730469 20.574219 11.738281 C 20.578125 11.746094 20.542969 11.738281 20.558594 11.746094 L 20.601562 11.746094 L 20.578125 11.753906 C 20.695312 11.773438 20.75 11.828125 20.855469 11.835938 L 20.832031 11.84375 C 20.90625 11.847656 20.929688 11.894531 20.992188 11.910156 L 20.996094 11.902344 C 21.074219 11.953125 21.175781 11.976562 21.265625 12.023438 L 21.257812 12.011719 L 21.3125 12.015625 C 21.3125 12.023438 21.292969 12.035156 21.320312 12.042969 L 21.3125 12.023438 C 21.378906 12.085938 21.542969 12.15625 21.65625 12.242188 C 21.730469 12.277344 21.800781 12.328125 21.867188 12.375 C 21.738281 12.324219 21.609375 12.273438 21.480469 12.230469 L 21.558594 12.308594 C 20.871094 12.1875 20.125 12.214844 19.375 12.304688 C 19.355469 12.308594 19.332031 12.3125 19.308594 12.316406 C 19.148438 12.316406 19.125 12.320312 19.070312 12.347656 C 19.007812 12.335938 18.917969 12.339844 18.835938 12.34375 C 18.859375 12.332031 18.789062 12.28125 18.921875 12.308594 C 18.839844 12.277344 18.695312 12.261719 18.640625 12.289062 C 18.738281 12.316406 18.65625 12.3125 18.566406 12.3125 C 18.476562 12.316406 18.378906 12.324219 18.453125 12.355469 C 18.386719 12.339844 18.320312 12.324219 18.25 12.3125 C 18.296875 12.3125 18.304688 12.292969 18.371094 12.304688 C 18.316406 12.242188 18.203125 12.3125 18.132812 12.316406 C 18.0625 12.304688 17.875 12.308594 17.859375 12.292969 C 17.792969 12.3125 17.636719 12.316406 17.601562 12.300781 C 17.503906 12.324219 17.597656 12.332031 17.574219 12.355469 L 17.410156 12.382812 L 17.25 12.421875 C 17.226562 12.398438 17.175781 12.328125 17.222656 12.304688 C 17.105469 12.367188 17.199219 12.390625 17.019531 12.453125 C 17.105469 12.363281 16.761719 12.503906 16.890625 12.386719 C 16.765625 12.378906 16.472656 12.53125 16.335938 12.628906 C 16.265625 12.71875 16.507812 12.558594 16.519531 12.605469 C 16.195312 12.804688 16.167969 12.925781 16.023438 13.046875 C 15.863281 13.117188 15.6875 13.195312 15.515625 13.289062 C 15.226562 13.4375 14.9375 13.625 14.667969 13.820312 L 14.660156 13.820312 L 14.667969 13.820312 C 14.527344 13.921875 14.390625 14.027344 14.261719 14.132812 C 14.21875 14.152344 14.171875 14.167969 14.125 14.179688 C 14.148438 14.179688 14.1875 14.175781 14.199219 14.1875 C 14.171875 14.210938 14.148438 14.238281 14.121094 14.261719 C 14.074219 14.203125 13.789062 14.425781 13.773438 14.394531 C 13.714844 14.429688 13.59375 14.480469 13.601562 14.511719 L 13.585938 14.464844 C 13.605469 14.53125 13.382812 14.671875 13.226562 14.800781 C 13.210938 14.703125 13.050781 14.9375 12.933594 14.9375 C 12.9375 15.003906 12.667969 15.195312 12.675781 15.257812 C 12.566406 15.375 12.542969 15.324219 12.5 15.34375 C 12.488281 15.363281 12.472656 15.386719 12.464844 15.410156 C 12.425781 15.433594 12.355469 15.5 12.28125 15.578125 C 12.210938 15.660156 12.128906 15.75 12.074219 15.824219 L 12.019531 15.988281 L 11.972656 16.027344 C 11.96875 16.058594 11.902344 16.179688 11.960938 16.117188 L 11.914062 16.191406 C 11.953125 16.222656 11.867188 16.308594 11.804688 16.476562 C 11.78125 16.507812 11.773438 16.496094 11.785156 16.457031 C 11.75 16.539062 11.742188 16.492188 11.707031 16.53125 C 11.746094 16.480469 11.660156 16.855469 11.773438 16.648438 C 11.796875 16.640625 11.753906 16.769531 11.71875 16.847656 L 11.664062 16.882812 C 11.664062 16.917969 11.664062 16.953125 11.667969 16.992188 C 11.632812 17.121094 11.585938 17.164062 11.558594 17.269531 C 11.585938 17.164062 11.550781 17.007812 11.476562 17.289062 C 11.503906 17.136719 11.511719 17.0625 11.523438 16.980469 C 11.507812 17.039062 11.492188 17.066406 11.503906 16.972656 C 11.453125 17.195312 11.5 17.050781 11.449219 17.269531 C 11.421875 17.25 11.386719 17.304688 11.335938 17.496094 C 11.355469 17.453125 11.371094 17.402344 11.394531 17.359375 L 11.394531 17.390625 C 11.414062 17.335938 11.421875 17.320312 11.4375 17.3125 C 11.425781 17.355469 11.421875 17.578125 11.394531 17.609375 C 11.445312 17.503906 11.433594 17.601562 11.421875 17.710938 C 11.410156 17.816406 11.394531 17.933594 11.421875 17.867188 C 11.425781 17.890625 11.410156 18.042969 11.390625 18.058594 C 11.390625 17.871094 11.335938 18.191406 11.320312 18.15625 C 11.320312 18.226562 11.359375 18.015625 11.363281 18.109375 C 11.347656 18.21875 11.328125 18.296875 11.3125 18.359375 L 11.308594 18.3125 C 11.300781 18.367188 11.289062 18.425781 11.285156 18.480469 C 11.296875 18.511719 11.320312 18.316406 11.316406 18.476562 C 11.308594 18.515625 11.3125 18.671875 11.300781 18.667969 C 11.28125 18.59375 11.253906 18.644531 11.25 18.511719 C 11.246094 18.621094 11.253906 18.976562 11.28125 18.835938 L 11.28125 18.964844 C 11.289062 18.882812 11.316406 18.652344 11.316406 18.917969 L 11.3125 18.914062 L 11.339844 19.097656 L 11.328125 19.175781 C 11.332031 19.175781 11.339844 19.203125 11.34375 19.269531 C 11.335938 19.289062 11.339844 19.351562 11.328125 19.347656 C 11.34375 19.546875 11.359375 19.527344 11.367188 19.554688 C 11.378906 19.660156 11.378906 19.703125 11.359375 19.652344 C 11.371094 19.804688 11.421875 20.066406 11.441406 20.171875 C 11.511719 20.367188 11.433594 20.128906 11.484375 20.242188 C 11.492188 20.332031 11.542969 20.5 11.640625 20.667969 C 11.738281 20.835938 11.875 20.996094 11.992188 21.117188 C 11.953125 21.035156 12.046875 21.167969 12.109375 21.203125 C 12.09375 21.199219 12.3125 21.425781 12.113281 21.242188 L 12.246094 21.363281 C 12.324219 21.453125 12.023438 21.167969 12.144531 21.304688 C 12.292969 21.441406 12.40625 21.507812 12.570312 21.664062 C 12.503906 21.625 12.707031 21.777344 12.65625 21.75 C 12.613281 21.722656 12.570312 21.679688 12.519531 21.636719 L 12.546875 21.667969 C 12.863281 21.953125 12.652344 21.734375 12.820312 21.882812 C 13 22.066406 12.953125 22.035156 12.960938 22.046875 C 12.976562 22.066406 13.023438 22.117188 13.0625 22.164062 C 12.988281 22.074219 12.941406 22.011719 12.984375 22.050781 C 13.054688 22.140625 13.222656 22.351562 13.257812 22.414062 C 13.0625 22.101562 13.117188 22.199219 12.898438 21.929688 C 12.859375 21.902344 12.859375 21.910156 12.714844 21.765625 C 12.8125 21.851562 12.710938 21.753906 12.6875 21.726562 C 12.710938 21.757812 12.578125 21.628906 12.527344 21.589844 C 12.488281 21.546875 12.632812 21.660156 12.480469 21.515625 L 12.433594 21.503906 C 12.375 21.445312 12.472656 21.515625 12.335938 21.398438 C 12.414062 21.457031 12.328125 21.367188 12.507812 21.527344 C 12.308594 21.320312 12.179688 21.234375 12.019531 21.078125 L 12.054688 21.109375 C 12.019531 21.078125 11.960938 21.011719 11.917969 20.960938 C 11.832031 20.84375 12 21.046875 11.984375 21.011719 C 11.933594 20.949219 11.882812 20.886719 11.835938 20.820312 L 11.835938 20.816406 C 11.796875 20.765625 11.761719 20.71875 11.757812 20.695312 C 11.800781 20.75 11.828125 20.765625 11.859375 20.804688 C 11.804688 20.738281 11.757812 20.671875 11.710938 20.601562 C 11.730469 20.621094 11.640625 20.410156 11.722656 20.566406 C 11.667969 20.457031 11.621094 20.34375 11.585938 20.226562 L 11.601562 20.191406 C 11.578125 20.109375 11.570312 20.105469 11.59375 20.207031 C 11.558594 20.089844 11.453125 19.671875 11.511719 19.730469 C 11.464844 19.445312 11.464844 19.339844 11.449219 18.992188 C 11.472656 19.261719 11.484375 18.6875 11.492188 18.96875 C 11.511719 18.804688 11.480469 18.769531 11.480469 18.640625 C 11.5 18.515625 11.527344 18.574219 11.53125 18.707031 L 11.527344 18.550781 L 11.53125 18.554688 C 11.53125 18.507812 11.527344 18.464844 11.527344 18.417969 C 11.558594 18.28125 11.558594 18.390625 11.582031 18.246094 L 11.554688 18.210938 L 11.585938 18.117188 C 11.570312 18.152344 11.574219 18.0625 11.589844 17.957031 L 11.59375 17.960938 L 11.613281 17.832031 C 11.609375 17.960938 11.644531 17.71875 11.652344 17.78125 C 11.675781 17.671875 11.675781 17.671875 11.71875 17.476562 L 11.691406 17.503906 C 11.742188 17.25 11.722656 17.503906 11.785156 17.300781 L 11.757812 17.308594 C 11.886719 17.035156 11.902344 16.816406 12.027344 16.625 C 11.980469 16.742188 12.023438 16.726562 12.015625 16.722656 C 12.082031 16.542969 12.246094 16.277344 12.332031 16.097656 C 12.410156 16.066406 12.425781 16.054688 12.566406 15.914062 C 12.65625 15.796875 12.675781 15.785156 12.6875 15.730469 C 12.789062 15.636719 12.972656 15.441406 13 15.460938 C 13.007812 15.421875 13.101562 15.382812 13.148438 15.316406 L 13.171875 15.316406 L 13.140625 15.300781 C 13.179688 15.285156 13.214844 15.265625 13.25 15.242188 C 13.121094 15.417969 13 15.59375 12.886719 15.777344 C 12.527344 16.378906 12.265625 17.042969 12.136719 17.699219 C 12.175781 17.496094 12.199219 17.59375 12.160156 17.738281 C 12.007812 18.140625 12.054688 18.457031 12.011719 18.898438 C 12.035156 19.300781 12.117188 19.707031 12.277344 20.058594 C 12.4375 20.410156 12.640625 20.710938 12.871094 20.972656 L 12.859375 21 C 12.914062 21.089844 12.941406 21.105469 13.011719 21.191406 L 13.003906 21.191406 C 13.148438 21.410156 13.363281 21.644531 13.445312 21.769531 L 13.472656 21.757812 C 13.574219 21.878906 13.507812 21.835938 13.621094 21.949219 L 13.605469 21.953125 L 13.746094 22.078125 C 13.695312 22.097656 14.023438 22.414062 14.089844 22.523438 C 14.226562 22.667969 14.5 22.933594 14.703125 23.160156 C 14.722656 23.222656 14.984375 23.488281 15.144531 23.664062 C 15.292969 23.808594 15.472656 23.96875 15.664062 24.144531 C 15.59375 24.117188 15.425781 24.0625 15.234375 24.015625 C 14.984375 23.949219 14.699219 23.875 14.582031 23.855469 L 14.554688 23.859375 L 14.53125 23.847656 C 14.550781 23.855469 14.519531 23.851562 14.535156 23.867188 L 14.523438 23.859375 L 14.535156 23.871094 L 14.542969 23.863281 L 14.5625 23.878906 C 14.570312 23.878906 14.582031 23.871094 14.605469 23.886719 L 14.597656 23.882812 C 14.617188 23.894531 14.605469 23.894531 14.609375 23.898438 L 14.605469 23.898438 L 14.617188 23.910156 L 14.59375 23.902344 C 14.617188 23.914062 14.589844 23.898438 14.609375 23.902344 L 14.609375 23.914062 L 14.628906 23.925781 L 14.621094 23.925781 L 14.648438 23.933594 L 14.679688 23.957031 L 14.675781 23.964844 L 14.714844 23.984375 L 14.707031 23.988281 L 14.726562 23.992188 L 14.75 24.019531 C 14.773438 24.039062 14.769531 24.011719 14.789062 24.03125 L 14.777344 24.03125 L 14.804688 24.046875 L 14.785156 24.046875 C 14.851562 24.09375 14.867188 24.15625 14.9375 24.183594 L 14.917969 24.1875 C 14.96875 24.203125 14.972656 24.25 15.011719 24.273438 L 15.015625 24.265625 C 15.058594 24.328125 15.128906 24.355469 15.183594 24.40625 L 15.179688 24.394531 L 15.222656 24.398438 C 15.21875 24.402344 15.203125 24.414062 15.222656 24.421875 L 15.21875 24.402344 C 15.261719 24.464844 15.378906 24.527344 15.460938 24.59375 C 15.585938 24.65625 15.703125 24.761719 15.832031 24.820312 C 15.8125 24.8125 15.835938 24.773438 15.84375 24.792969 C 15.855469 24.882812 15.917969 24.8125 15.9375 24.882812 C 16.019531 24.898438 16.058594 24.996094 16.148438 24.972656 L 16.140625 24.996094 L 16.167969 25 L 16.164062 25.003906 C 16.1875 25.027344 16.222656 25.019531 16.234375 25.035156 L 16.246094 25.011719 C 16.261719 25.015625 16.246094 25.035156 16.265625 25.027344 L 16.261719 25.039062 L 16.289062 25.023438 C 16.269531 25.070312 16.328125 25.046875 16.332031 25.074219 C 16.355469 25.074219 16.398438 25.070312 16.425781 25.09375 C 16.421875 25.121094 16.460938 25.136719 16.480469 25.160156 C 16.527344 25.175781 16.59375 25.195312 16.648438 25.230469 L 16.660156 25.195312 L 16.675781 25.199219 L 16.671875 25.214844 C 16.671875 25.257812 16.710938 25.214844 16.714844 25.246094 C 16.714844 25.210938 16.703125 25.238281 16.695312 25.230469 C 16.6875 25.210938 16.710938 25.179688 16.722656 25.207031 L 16.71875 25.214844 L 16.738281 25.199219 C 16.730469 25.226562 16.738281 25.246094 16.730469 25.273438 C 16.78125 25.285156 16.832031 25.25 16.878906 25.285156 C 16.863281 25.316406 16.917969 25.292969 16.894531 25.34375 C 16.929688 25.335938 16.902344 25.296875 16.925781 25.261719 C 16.933594 25.265625 16.949219 25.253906 16.945312 25.277344 L 16.933594 25.316406 L 16.957031 25.320312 L 16.945312 25.335938 C 17 25.316406 17.011719 25.398438 17.058594 25.378906 C 17.070312 25.359375 17.046875 25.367188 17.054688 25.347656 C 17.105469 25.320312 17.078125 25.398438 17.125 25.382812 L 17.109375 25.410156 C 17.125 25.390625 17.136719 25.367188 17.152344 25.398438 C 17.144531 25.4375 17.128906 25.421875 17.113281 25.433594 C 17.125 25.441406 17.164062 25.445312 17.160156 25.410156 C 17.179688 25.402344 17.175781 25.4375 17.183594 25.449219 L 17.1875 25.40625 C 17.203125 25.4375 17.238281 25.445312 17.265625 25.457031 L 17.257812 25.484375 C 17.289062 25.445312 17.269531 25.527344 17.300781 25.527344 C 17.382812 25.542969 17.496094 25.527344 17.570312 25.570312 C 17.601562 25.523438 17.625 25.53125 17.652344 25.527344 L 17.640625 25.597656 L 17.667969 25.582031 C 17.671875 25.609375 17.648438 25.589844 17.65625 25.621094 L 17.675781 25.582031 C 17.671875 25.609375 17.722656 25.617188 17.679688 25.65625 L 17.761719 25.6875 C 17.777344 25.695312 17.785156 25.628906 17.800781 25.65625 C 17.800781 25.679688 17.789062 25.667969 17.785156 25.695312 C 17.835938 25.773438 17.882812 25.574219 17.933594 25.625 L 17.925781 25.636719 L 17.960938 25.617188 C 17.964844 25.535156 17.941406 25.65625 17.933594 25.605469 C 17.945312 25.539062 17.960938 25.574219 17.96875 25.523438 C 17.976562 25.550781 17.992188 25.515625 18.003906 25.515625 C 18.015625 25.5625 18.046875 25.542969 18.054688 25.597656 C 18.066406 25.582031 18.089844 25.515625 18.109375 25.519531 C 18.117188 25.578125 18.097656 25.570312 18.113281 25.59375 L 18.125 25.554688 C 18.140625 25.566406 18.136719 25.578125 18.132812 25.597656 C 18.148438 25.601562 18.15625 25.546875 18.175781 25.578125 L 18.15625 25.613281 C 18.175781 25.601562 18.179688 25.609375 18.203125 25.621094 C 18.199219 25.644531 18.1875 25.640625 18.183594 25.628906 C 18.1875 25.695312 18.207031 25.609375 18.214844 25.617188 C 18.214844 25.601562 18.199219 25.589844 18.214844 25.550781 C 18.226562 25.558594 18.246094 25.5 18.25 25.550781 L 18.230469 25.585938 C 18.257812 25.5625 18.25 25.539062 18.273438 25.5625 L 18.269531 25.582031 C 18.296875 25.535156 18.308594 25.585938 18.335938 25.597656 L 18.328125 25.605469 L 18.355469 25.5625 C 18.347656 25.535156 18.351562 25.523438 18.355469 25.484375 C 18.367188 25.554688 18.398438 25.410156 18.421875 25.457031 C 18.417969 25.480469 18.40625 25.507812 18.402344 25.480469 C 18.382812 25.550781 18.371094 25.609375 18.347656 25.636719 C 18.363281 25.625 18.375 25.617188 18.371094 25.648438 L 18.382812 25.582031 L 18.402344 25.585938 C 18.410156 25.546875 18.394531 25.515625 18.417969 25.492188 C 18.4375 25.472656 18.417969 25.5625 18.425781 25.53125 C 18.453125 25.511719 18.445312 25.460938 18.464844 25.488281 L 18.457031 25.496094 C 18.46875 25.527344 18.5 25.492188 18.496094 25.574219 L 18.480469 25.609375 L 18.480469 25.59375 C 18.453125 25.648438 18.5 25.582031 18.484375 25.652344 C 18.488281 25.609375 18.511719 25.625 18.523438 25.632812 L 18.527344 25.585938 C 18.582031 25.441406 18.511719 25.683594 18.550781 25.667969 C 18.578125 25.636719 18.542969 25.652344 18.5625 25.621094 C 18.574219 25.632812 18.574219 25.675781 18.601562 25.65625 C 18.605469 25.679688 18.613281 25.707031 18.609375 25.761719 C 18.625 25.742188 18.648438 25.792969 18.664062 25.738281 C 18.644531 25.691406 18.632812 25.792969 18.613281 25.71875 L 18.628906 25.664062 C 18.648438 25.671875 18.675781 25.644531 18.6875 25.667969 L 18.6875 25.632812 C 18.71875 25.613281 18.734375 25.5625 18.757812 25.578125 C 18.757812 25.628906 18.742188 25.621094 18.730469 25.621094 C 18.742188 25.664062 18.746094 25.628906 18.773438 25.644531 C 18.769531 25.6875 18.753906 25.640625 18.746094 25.683594 L 18.777344 25.671875 L 18.777344 25.679688 C 18.789062 25.609375 18.796875 25.691406 18.820312 25.667969 C 18.859375 25.671875 18.878906 25.578125 18.910156 25.523438 C 18.914062 25.542969 18.914062 25.5625 18.910156 25.578125 C 18.902344 25.546875 18.902344 25.570312 18.894531 25.589844 C 18.910156 25.582031 18.917969 25.660156 18.90625 25.6875 C 18.933594 25.667969 18.902344 25.652344 18.921875 25.628906 L 18.953125 25.636719 C 18.953125 25.601562 18.941406 25.59375 18.960938 25.566406 L 19 25.566406 L 18.984375 25.621094 C 18.992188 25.632812 19.003906 25.636719 19.015625 25.601562 C 19 25.566406 19.050781 25.574219 19.046875 25.519531 L 19.058594 25.550781 L 19.046875 25.566406 C 19.042969 25.621094 19.0625 25.550781 19.070312 25.546875 C 19.078125 25.558594 19.09375 25.5625 19.09375 25.585938 C 19.101562 25.570312 19.113281 25.582031 19.113281 25.609375 L 19.125 25.558594 L 19.15625 25.566406 C 19.152344 25.59375 19.144531 25.671875 19.136719 25.683594 C 19.152344 25.65625 19.152344 25.597656 19.171875 25.601562 C 19.152344 25.65625 19.1875 25.644531 19.164062 25.710938 C 19.167969 25.75 19.195312 25.746094 19.214844 25.734375 C 19.230469 25.691406 19.199219 25.710938 19.207031 25.664062 C 19.257812 25.652344 19.277344 25.535156 19.308594 25.554688 L 19.300781 25.542969 C 19.324219 25.519531 19.320312 25.527344 19.339844 25.492188 C 19.324219 25.542969 19.339844 25.632812 19.375 25.621094 C 19.382812 25.597656 19.363281 25.574219 19.375 25.53125 L 19.398438 25.527344 L 19.394531 25.546875 C 19.417969 25.527344 19.417969 25.613281 19.433594 25.554688 L 19.441406 25.628906 L 19.441406 25.597656 C 19.449219 25.574219 19.472656 25.566406 19.476562 25.558594 C 19.503906 25.53125 19.507812 25.554688 19.515625 25.585938 C 19.515625 25.566406 19.515625 25.519531 19.535156 25.515625 C 19.519531 25.589844 19.566406 25.542969 19.558594 25.582031 C 19.566406 25.582031 19.574219 25.605469 19.582031 25.578125 L 19.570312 25.621094 C 19.585938 25.558594 19.609375 25.5625 19.632812 25.554688 C 19.613281 25.636719 19.65625 25.550781 19.652344 25.625 C 19.667969 25.566406 19.691406 25.605469 19.703125 25.558594 L 19.710938 25.621094 L 19.71875 25.605469 C 19.722656 25.628906 19.75 25.632812 19.765625 25.648438 L 19.792969 25.605469 L 19.792969 25.625 L 19.808594 25.59375 L 19.816406 25.59375 C 19.828125 25.546875 19.832031 25.582031 19.855469 25.5625 L 19.847656 25.589844 L 19.847656 25.628906 C 19.84375 25.617188 19.898438 25.550781 19.878906 25.527344 C 19.882812 25.507812 19.898438 25.496094 19.90625 25.507812 L 19.902344 25.546875 L 19.921875 25.507812 L 19.945312 25.535156 C 19.933594 25.535156 19.902344 25.609375 19.933594 25.609375 L 19.894531 25.640625 L 19.886719 25.664062 C 19.914062 25.652344 19.902344 25.640625 19.925781 25.636719 C 19.914062 25.671875 19.917969 25.679688 19.933594 25.691406 L 19.925781 25.667969 L 19.929688 25.65625 L 19.929688 25.636719 C 19.933594 25.636719 19.964844 25.59375 19.964844 25.617188 C 19.957031 25.5625 20.015625 25.578125 20.007812 25.550781 L 20.027344 25.554688 C 20 25.578125 20.03125 25.59375 20.019531 25.613281 L 20.027344 25.578125 L 20.042969 25.609375 L 20.039062 25.613281 L 20.050781 25.625 C 20.058594 25.613281 20.042969 25.601562 20.058594 25.59375 L 20.078125 25.605469 C 20.0625 25.625 20.0625 25.652344 20.046875 25.65625 C 20.058594 25.65625 20.09375 25.652344 20.089844 25.625 L 20.101562 25.628906 C 20.097656 25.617188 20.078125 25.59375 20.105469 25.589844 L 20.105469 25.597656 L 20.128906 25.578125 L 20.132812 25.59375 L 20.148438 25.582031 L 20.148438 25.605469 C 20.167969 25.605469 20.171875 25.59375 20.175781 25.585938 L 20.179688 25.605469 L 20.230469 25.621094 C 20.253906 25.613281 20.226562 25.617188 20.246094 25.601562 C 20.25 25.640625 20.308594 25.621094 20.34375 25.621094 C 20.34375 25.597656 20.355469 25.621094 20.367188 25.601562 C 20.359375 25.609375 20.394531 25.625 20.363281 25.625 L 20.382812 25.625 C 20.390625 25.640625 20.347656 25.632812 20.359375 25.652344 C 20.382812 25.648438 20.402344 25.628906 20.425781 25.640625 L 20.433594 25.652344 L 20.414062 25.652344 L 20.417969 25.65625 C 20.460938 25.660156 20.4375 25.644531 20.464844 25.636719 C 20.492188 25.640625 20.480469 25.648438 20.480469 25.652344 L 20.507812 25.652344 C 20.488281 25.65625 20.480469 25.644531 20.488281 25.636719 L 20.539062 25.644531 C 20.503906 25.628906 20.511719 25.640625 20.480469 25.621094 C 20.472656 25.621094 20.472656 25.632812 20.449219 25.625 L 20.449219 25.613281 L 20.425781 25.617188 C 20.421875 25.609375 20.445312 25.601562 20.425781 25.59375 L 20.414062 25.609375 C 20.40625 25.605469 20.421875 25.597656 20.402344 25.597656 C 20.417969 25.589844 20.40625 25.578125 20.429688 25.585938 C 20.410156 25.554688 20.382812 25.578125 20.359375 25.582031 L 20.367188 25.578125 L 20.34375 25.578125 L 20.355469 25.5625 L 20.320312 25.550781 L 20.339844 25.53125 L 20.3125 25.539062 C 20.316406 25.53125 20.296875 25.515625 20.316406 25.515625 L 20.277344 25.507812 L 20.28125 25.484375 L 20.28125 25.496094 C 20.269531 25.484375 20.210938 25.515625 20.234375 25.472656 C 20.199219 25.480469 20.191406 25.46875 20.152344 25.46875 C 20.1875 25.453125 20.128906 25.425781 20.160156 25.425781 C 20.148438 25.40625 20.136719 25.4375 20.121094 25.4375 L 20.144531 25.386719 L 20.125 25.394531 L 20.125 25.390625 L 20.105469 25.402344 C 20.097656 25.378906 20.113281 25.371094 20.097656 25.359375 L 20.085938 25.386719 L 20.082031 25.363281 L 20.058594 25.378906 L 20.0625 25.371094 L 20.046875 25.375 C 20.066406 25.359375 20.039062 25.363281 20.046875 25.34375 C 20.039062 25.339844 20.039062 25.339844 20.015625 25.335938 L 20.015625 25.355469 C 19.980469 25.367188 20.019531 25.328125 20 25.316406 L 19.996094 25.339844 C 19.972656 25.289062 19.933594 25.347656 19.917969 25.3125 L 19.933594 25.285156 C 19.914062 25.289062 19.882812 25.269531 19.851562 25.296875 C 19.855469 25.253906 19.855469 25.242188 19.839844 25.214844 C 19.820312 25.210938 19.820312 25.214844 19.808594 25.238281 C 19.796875 25.214844 19.761719 25.230469 19.769531 25.199219 C 19.761719 25.222656 19.757812 25.1875 19.742188 25.207031 L 19.746094 25.191406 L 19.738281 25.222656 C 19.726562 25.144531 19.6875 25.25 19.671875 25.179688 L 19.675781 25.171875 L 19.664062 25.183594 C 19.664062 25.167969 19.671875 25.160156 19.675781 25.140625 L 19.621094 25.117188 L 19.628906 25.144531 C 19.617188 25.144531 19.601562 25.175781 19.59375 25.152344 C 19.625 25.109375 19.574219 25.144531 19.578125 25.105469 L 19.59375 25.09375 C 19.578125 25.09375 19.578125 25.09375 19.574219 25.128906 L 19.558594 25.089844 L 19.691406 25.085938 C 19.710938 25.089844 19.664062 25.101562 19.640625 25.105469 C 20.074219 25.066406 20.417969 25.125 20.804688 25.054688 C 20.832031 25.03125 20.648438 25.0625 20.675781 25.035156 C 21.0625 24.957031 21.027344 25.046875 21.394531 24.96875 L 21.320312 25.007812 C 21.4375 24.972656 21.484375 24.9375 21.683594 24.925781 C 21.726562 24.960938 21.523438 24.984375 21.429688 25.015625 C 21.566406 25 21.910156 24.925781 21.796875 24.914062 C 21.957031 24.871094 22.023438 24.886719 22.113281 24.878906 C 22.113281 24.867188 21.957031 24.886719 22.046875 24.851562 C 22.269531 24.820312 22.613281 24.726562 22.878906 24.632812 C 22.878906 24.640625 22.902344 24.644531 22.878906 24.660156 C 23.074219 24.527344 23.085938 24.621094 23.375 24.476562 C 23.753906 24.277344 24.179688 23.984375 24.511719 23.597656 C 24.859375 23.214844 25.089844 22.765625 25.257812 22.382812 C 25.277344 22.195312 25.359375 21.953125 25.417969 21.699219 L 25.496094 21.691406 L 25.523438 21.480469 C 25.566406 21.398438 25.5 21.640625 25.5625 21.5 L 25.539062 21.410156 C 25.570312 21.398438 25.664062 20.878906 25.648438 21.238281 C 25.703125 20.96875 25.75 20.699219 25.78125 20.429688 C 25.808594 20.25 25.734375 20.316406 25.773438 20.117188 C 25.800781 20.082031 25.78125 20.191406 25.808594 20.179688 C 25.917969 19.574219 25.710938 19.476562 25.734375 18.914062 L 25.746094 18.960938 C 25.722656 18.867188 25.710938 18.6875 25.703125 18.683594 C 25.625 18.761719 25.753906 18.78125 25.710938 18.957031 C 25.648438 18.945312 25.664062 18.746094 25.613281 18.761719 C 25.632812 18.628906 25.585938 18.554688 25.570312 18.445312 C 25.589844 18.246094 25.523438 17.972656 25.542969 17.816406 C 25.507812 17.726562 25.417969 17.636719 25.367188 17.4375 C 25.382812 17.28125 25.425781 17.460938 25.394531 17.257812 L 25.34375 17.238281 C 25.304688 17.078125 25.324219 17.101562 25.34375 17.101562 C 25.292969 16.929688 25.246094 16.976562 25.195312 16.757812 C 25.222656 16.792969 25.25 16.828125 25.277344 16.863281 C 25.207031 16.710938 25.191406 16.644531 25.101562 16.433594 C 25.128906 16.425781 25.164062 16.511719 25.179688 16.578125 C 25.191406 16.4375 25.074219 16.390625 25.054688 16.328125 C 25.046875 16.351562 25.097656 16.5 25.03125 16.445312 C 24.996094 16.339844 24.878906 16.25 24.890625 16.15625 L 24.980469 16.25 C 24.847656 16.050781 24.878906 16.160156 24.765625 15.910156 L 24.792969 15.914062 C 24.660156 15.789062 24.59375 15.570312 24.445312 15.355469 L 24.484375 15.390625 C 24.414062 15.3125 24.351562 15.289062 24.320312 15.242188 C 24.386719 15.375 24.351562 15.351562 24.324219 15.382812 C 24.300781 15.292969 24.246094 15.246094 24.183594 15.199219 C 24.160156 15.15625 24.140625 15.109375 24.113281 15.0625 C 24.199219 15.078125 24.261719 15.082031 24.375 15.191406 C 24.289062 15.101562 24.191406 15 24.234375 15.003906 L 24.160156 15.015625 C 24.113281 14.960938 24.078125 14.914062 24.039062 14.875 L 24.035156 14.878906 L 24.027344 14.867188 L 24.039062 14.871094 L 24.019531 14.851562 C 24.007812 14.832031 23.996094 14.8125 23.988281 14.792969 C 24.035156 14.789062 24.09375 14.777344 24.097656 14.828125 L 24.085938 14.828125 C 24.109375 14.828125 24.121094 14.851562 24.132812 14.84375 C 24.191406 14.789062 24.089844 14.855469 24.113281 14.808594 C 24.171875 14.769531 24.160156 14.8125 24.199219 14.78125 C 24.191406 14.8125 24.226562 14.800781 24.238281 14.8125 C 24.21875 14.859375 24.261719 14.875 24.230469 14.921875 C 24.253906 14.921875 24.316406 14.894531 24.335938 14.917969 C 24.300781 14.964844 24.289062 14.945312 24.289062 14.980469 L 24.324219 14.960938 C 24.332031 14.984375 24.320312 14.988281 24.304688 14.996094 C 24.3125 15.019531 24.359375 14.984375 24.355469 15.023438 L 24.3125 15.03125 C 24.335938 15.042969 24.335938 15.054688 24.347656 15.085938 C 24.328125 15.097656 24.324219 15.085938 24.324219 15.074219 C 24.28125 15.121094 24.363281 15.082031 24.359375 15.097656 C 24.375 15.082031 24.371094 15.058594 24.410156 15.046875 C 24.410156 15.0625 24.472656 15.042969 24.4375 15.078125 L 24.394531 15.085938 C 24.4375 15.097656 24.449219 15.074219 24.453125 15.113281 L 24.433594 15.125 C 24.492188 15.117188 24.46875 15.167969 24.484375 15.203125 L 24.46875 15.203125 C 24.488281 15.207031 24.523438 15.191406 24.527344 15.199219 C 24.535156 15.171875 24.550781 15.167969 24.582031 15.144531 C 24.539062 15.203125 24.671875 15.132812 24.660156 15.195312 C 24.640625 15.207031 24.609375 15.214844 24.625 15.1875 C 24.558594 15.214844 24.503906 15.246094 24.464844 15.242188 C 24.484375 15.25 24.503906 15.261719 24.476562 15.273438 L 24.535156 15.242188 L 24.546875 15.261719 C 24.585938 15.242188 24.59375 15.207031 24.628906 15.214844 C 24.660156 15.222656 24.578125 15.261719 24.605469 15.25 C 24.648438 15.265625 24.675781 15.222656 24.675781 15.265625 L 24.660156 15.257812 C 24.648438 15.292969 24.703125 15.304688 24.636719 15.355469 L 24.597656 15.363281 L 24.609375 15.355469 C 24.546875 15.363281 24.636719 15.367188 24.570312 15.398438 C 24.605469 15.375 24.617188 15.40625 24.617188 15.425781 L 24.65625 15.394531 C 24.8125 15.359375 24.570312 15.445312 24.617188 15.476562 C 24.660156 15.488281 24.621094 15.460938 24.660156 15.457031 C 24.664062 15.480469 24.632812 15.511719 24.667969 15.527344 C 24.65625 15.546875 24.640625 15.574219 24.59375 15.605469 C 24.625 15.609375 24.605469 15.667969 24.660156 15.652344 C 24.679688 15.597656 24.589844 15.652344 24.632812 15.582031 L 24.683594 15.5625 C 24.695312 15.585938 24.738281 15.601562 24.730469 15.628906 L 24.761719 15.605469 C 24.800781 15.628906 24.851562 15.609375 24.859375 15.648438 C 24.820312 15.679688 24.8125 15.65625 24.800781 15.644531 C 24.78125 15.6875 24.8125 15.667969 24.820312 15.707031 C 24.785156 15.730469 24.808594 15.683594 24.769531 15.703125 L 24.804688 15.730469 L 24.796875 15.734375 C 24.863281 15.703125 24.808594 15.765625 24.839844 15.777344 C 24.871094 15.828125 24.960938 15.785156 25.027344 15.785156 L 24.984375 15.820312 C 25.003906 15.792969 24.984375 15.804688 24.964844 15.8125 C 24.984375 15.824219 24.929688 15.882812 24.898438 15.886719 C 24.933594 15.90625 24.925781 15.859375 24.953125 15.867188 L 24.976562 15.90625 C 25.003906 15.882812 25.003906 15.867188 25.039062 15.871094 C 25.058594 15.882812 25.058594 15.894531 25.070312 15.917969 L 25.015625 15.933594 C 25.011719 15.949219 25.019531 15.96875 25.054688 15.957031 C 25.070312 15.917969 25.105469 15.980469 25.144531 15.9375 L 25.128906 15.976562 L 25.109375 15.96875 C 25.066406 16.003906 25.132812 15.980469 25.140625 15.988281 L 25.132812 16.035156 C 25.148438 16.035156 25.148438 16.0625 25.128906 16.078125 L 25.175781 16.054688 L 25.195312 16.097656 C 25.171875 16.113281 25.105469 16.152344 25.089844 16.152344 C 25.125 16.152344 25.167969 16.117188 25.179688 16.140625 C 25.125 16.152344 25.160156 16.1875 25.089844 16.203125 C 25.0625 16.234375 25.089844 16.265625 25.113281 16.277344 C 25.160156 16.269531 25.121094 16.246094 25.164062 16.226562 C 25.195312 16.257812 25.246094 16.246094 25.28125 16.25 C 25.300781 16.335938 25.316406 16.421875 25.324219 16.457031 C 25.3125 16.359375 25.300781 16.296875 25.292969 16.25 L 25.328125 16.273438 L 25.332031 16.253906 C 25.367188 16.269531 25.363281 16.269531 25.402344 16.269531 C 25.351562 16.285156 25.292969 16.363281 25.332031 16.398438 C 25.355469 16.390625 25.359375 16.351562 25.402344 16.339844 L 25.425781 16.363281 L 25.40625 16.367188 C 25.4375 16.386719 25.375 16.445312 25.433594 16.425781 L 25.382812 16.484375 L 25.402344 16.457031 C 25.429688 16.453125 25.453125 16.476562 25.464844 16.476562 C 25.503906 16.496094 25.492188 16.515625 25.472656 16.542969 C 25.488281 16.53125 25.523438 16.496094 25.542969 16.515625 C 25.472656 16.550781 25.542969 16.578125 25.507812 16.59375 C 25.515625 16.601562 25.503906 16.628906 25.53125 16.617188 L 25.488281 16.636719 C 25.550781 16.609375 25.566406 16.644531 25.589844 16.664062 C 25.507812 16.695312 25.613281 16.691406 25.550781 16.734375 C 25.605469 16.714844 25.597656 16.769531 25.644531 16.753906 C 25.65625 16.773438 25.609375 16.792969 25.597656 16.804688 L 25.621094 16.804688 C 25.601562 16.824219 25.621094 16.863281 25.621094 16.894531 L 25.675781 16.894531 L 25.660156 16.910156 L 25.699219 16.90625 L 25.703125 16.917969 C 25.75 16.898438 25.726562 16.925781 25.757812 16.941406 L 25.734375 16.949219 L 25.703125 16.980469 C 25.710938 16.964844 25.804688 16.984375 25.808594 16.945312 L 25.84375 16.964844 L 25.808594 16.984375 L 25.855469 16.980469 L 25.855469 17.03125 C 25.84375 17.019531 25.765625 17.03125 25.789062 17.066406 L 25.730469 17.042969 C 25.734375 17.050781 25.734375 17.054688 25.710938 17.050781 C 25.738281 17.074219 25.738281 17.050781 25.761719 17.078125 C 25.726562 17.089844 25.722656 17.101562 25.726562 17.128906 L 25.738281 17.101562 L 25.75 17.101562 L 25.765625 17.082031 L 25.808594 17.113281 C 25.839844 17.0625 25.875 17.144531 25.890625 17.113281 L 25.902344 17.140625 C 25.867188 17.128906 25.878906 17.175781 25.855469 17.179688 C 25.867188 17.183594 25.867188 17.152344 25.882812 17.160156 L 25.878906 17.203125 L 25.867188 17.199219 L 25.871094 17.226562 C 25.886719 17.222656 25.878906 17.195312 25.898438 17.210938 L 25.90625 17.242188 C 25.878906 17.238281 25.859375 17.257812 25.84375 17.242188 C 25.855469 17.253906 25.886719 17.296875 25.898438 17.269531 L 25.910156 17.285156 C 25.914062 17.269531 25.917969 17.230469 25.941406 17.265625 L 25.933594 17.265625 L 25.96875 17.285156 L 25.960938 17.300781 L 25.980469 17.308594 L 25.964844 17.324219 C 25.980469 17.351562 25.992188 17.34375 26 17.34375 L 25.988281 17.363281 C 26 17.386719 26.019531 17.417969 26.015625 17.4375 C 26.042969 17.460938 26.019531 17.429688 26.042969 17.4375 C 26.019531 17.476562 26.082031 17.53125 26.109375 17.574219 C 26.125 17.550781 26.117188 17.585938 26.144531 17.585938 C 26.128906 17.578125 26.148438 17.632812 26.121094 17.597656 L 26.136719 17.617188 C 26.132812 17.640625 26.101562 17.585938 26.101562 17.613281 C 26.117188 17.640625 26.152344 17.648438 26.160156 17.679688 C 26.140625 17.675781 26.179688 17.703125 26.160156 17.699219 L 26.140625 17.679688 L 26.144531 17.683594 C 26.179688 17.742188 26.167969 17.695312 26.195312 17.722656 C 26.214844 17.757812 26.203125 17.753906 26.199219 17.757812 L 26.222656 17.785156 C 26.203125 17.769531 26.203125 17.746094 26.214844 17.753906 "/>
</g>
<path style=" stroke:none;fill-rule:nonzero;fill:rgb(0%,0%,0%);fill-opacity:1;" d="M 24.796875 15.753906 L 24.792969 15.738281 L 24.757812 15.75 Z M 24.796875 15.753906 "/>
<path style=" stroke:none;fill-rule:nonzero;fill:rgb(0%,0%,0%);fill-opacity:1;" d="M 24.300781 14.996094 L 24.277344 15.023438 L 24.300781 14.996094 "/>
<path style=" stroke:none;fill-rule:nonzero;fill:rgb(0%,0%,0%);fill-opacity:1;" d="M 25.710938 16.933594 L 25.703125 16.917969 L 25.699219 16.917969 Z M 25.710938 16.933594 "/>
<path style=" stroke:none;fill-rule:nonzero;fill:rgb(0%,0%,0%);fill-opacity:1;" d="M 25.621094 16.894531 L 25.609375 16.890625 Z M 25.621094 16.894531 "/>
<path style=" stroke:none;fill-rule:nonzero;fill:rgb(0%,0%,0%);fill-opacity:1;" d="M 25.757812 17.105469 L 25.75 17.101562 L 25.75 17.109375 Z M 25.757812 17.105469 "/>
<path style=" stroke:none;fill-rule:nonzero;fill:rgb(0%,0%,0%);fill-opacity:1;" d="M 25.476562 16.601562 L 25.507812 16.59375 C 25.503906 16.589844 25.496094 16.589844 25.476562 16.601562 "/>
<g clip-path="url(#clip9)" clip-rule="nonzero">
<path style=" stroke:none;fill-rule:nonzero;fill:rgb(0%,0%,0%);fill-opacity:1;" d="M 20.050781 25.339844 L 20.046875 25.34375 L 20.066406 25.355469 Z M 20.050781 25.339844 "/>
</g>
<g clip-path="url(#clip10)" clip-rule="nonzero">
<path style=" stroke:none;fill-rule:nonzero;fill:rgb(0%,0%,0%);fill-opacity:1;" d="M 19.96875 25.640625 L 19.9375 25.652344 C 19.949219 25.648438 19.957031 25.664062 19.96875 25.640625 "/>
</g>
<g clip-path="url(#clip11)" clip-rule="nonzero">
<path style=" stroke:none;fill-rule:nonzero;fill:rgb(0%,0%,0%);fill-opacity:1;" d="M 18.425781 25.550781 C 18.421875 25.542969 18.410156 25.566406 18.402344 25.585938 C 18.40625 25.589844 18.414062 25.582031 18.425781 25.550781 "/>
</g>
<g clip-path="url(#clip12)" clip-rule="nonzero">
<path style=" stroke:none;fill-rule:nonzero;fill:rgb(0%,0%,0%);fill-opacity:1;" d="M 18.773438 25.683594 L 18.777344 25.679688 Z M 18.773438 25.683594 "/>
<path style=" stroke:none;fill-rule:nonzero;fill:rgb(0%,0%,0%);fill-opacity:1;" d="M 18.785156 25.691406 L 18.773438 25.683594 L 18.765625 25.71875 Z M 18.785156 25.691406 "/>
</g>
<g clip-path="url(#clip13)" clip-rule="nonzero">
<path style=" stroke:none;fill-rule:nonzero;fill:rgb(0%,0%,0%);fill-opacity:1;" d="M 18.132812 25.597656 L 18.128906 25.632812 L 18.132812 25.597656 "/>
</g>
<g clip-path="url(#clip14)" clip-rule="nonzero">
<path style=" stroke:none;fill-rule:nonzero;fill:rgb(0%,0%,0%);fill-opacity:1;" d="M 19.828125 25.597656 L 19.816406 25.59375 L 19.816406 25.601562 Z M 19.828125 25.597656 "/>
</g>
<g clip-path="url(#clip15)" clip-rule="nonzero">
<path style=" stroke:none;fill-rule:nonzero;fill:rgb(0%,0%,0%);fill-opacity:1;" d="M 19.894531 25.640625 L 19.878906 25.636719 L 19.894531 25.640625 "/>
</g>
<g clip-path="url(#clip16)" clip-rule="nonzero">
<path style=" stroke:none;fill-rule:nonzero;fill:rgb(0%,0%,0%);fill-opacity:1;" d="M 19.765625 25.652344 L 19.765625 25.648438 L 19.757812 25.660156 Z M 19.765625 25.652344 "/>
</g>
<g clip-path="url(#clip17)" clip-rule="nonzero">
<path style=" stroke:none;fill-rule:nonzero;fill:rgb(0%,0%,0%);fill-opacity:1;" d="M 19.9375 25.652344 L 19.929688 25.65625 L 19.9375 25.660156 Z M 19.9375 25.652344 "/>
</g>
<g clip-path="url(#clip18)" clip-rule="nonzero">
<path style=" stroke:none;fill-rule:nonzero;fill:rgb(0%,0%,0%);fill-opacity:1;" d="M 19.558594 25.582031 C 19.554688 25.582031 19.550781 25.589844 19.546875 25.613281 L 19.558594 25.582031 "/>
</g>
<g clip-path="url(#clip19)" clip-rule="nonzero">
<path style=" stroke:none;fill-rule:nonzero;fill:rgb(100%,100%,100%);fill-opacity:1;" d="M 12.308594 12.457031 C 11.363281 12.457031 10.59375 13.199219 10.59375 14.109375 L 10.59375 23.070312 C 10.59375 23.984375 11.363281 24.722656 12.308594 24.722656 L 25.511719 24.722656 C 26.457031 24.722656 27.226562 23.984375 27.226562 23.070312 L 27.226562 14.109375 C 27.226562 13.199219 26.457031 12.457031 25.511719 12.457031 Z M 25.511719 26.464844 L 12.308594 26.464844 C 10.367188 26.464844 8.789062 24.941406 8.789062 23.070312 L 8.789062 14.109375 C 8.789062 12.238281 10.367188 10.714844 12.308594 10.714844 L 25.511719 10.714844 C 27.453125 10.714844 29.03125 12.238281 29.03125 14.109375 L 29.03125 23.070312 C 29.03125 24.941406 27.453125 26.464844 25.511719 26.464844 "/>
</g>
<path style=" stroke:none;fill-rule:nonzero;fill:rgb(100%,100%,100%);fill-opacity:1;" d="M 18.902344 20.699219 C 17.964844 20.699219 17.027344 20.367188 16.242188 19.707031 L 9.722656 14.195312 L 10.914062 12.886719 L 17.429688 18.394531 C 18.316406 19.140625 19.5 19.140625 20.378906 18.386719 L 26.828125 12.890625 L 28.023438 14.195312 L 21.574219 19.691406 C 20.789062 20.363281 19.84375 20.699219 18.902344 20.699219 "/>
<path style=" stroke:none;fill-rule:nonzero;fill:rgb(100%,100%,100%);fill-opacity:1;" d="M 11.101562 25.25 L 9.90625 23.945312 L 16.167969 18.605469 L 17.363281 19.910156 L 11.101562 25.25 "/>
<path style=" stroke:none;fill-rule:nonzero;fill:rgb(100%,100%,100%);fill-opacity:1;" d="M 26.707031 25.335938 L 20.445312 19.996094 L 21.640625 18.691406 L 27.902344 24.03125 L 26.707031 25.335938 "/>
<g clip-path="url(#clip20)" clip-rule="nonzero">
<path style=" stroke:none;fill-rule:nonzero;fill:rgb(9.799194%,16.079712%,57.249451%);fill-opacity:1;" d="M 10.5625 20.683594 C 10.726562 20.878906 11.097656 21.457031 11.398438 21.4375 C 15.160156 21.199219 18.921875 20.953125 22.683594 20.703125 C 26.238281 20.464844 29.761719 20.566406 33.324219 20.621094 C 33.402344 20.621094 32.855469 19.785156 32.839844 19.765625 C 32.679688 19.558594 32.269531 18.917969 31.976562 18.898438 C 31.765625 18.882812 31.550781 18.871094 31.339844 18.855469 C 32.222656 18.835938 33.101562 18.824219 33.984375 18.816406 C 34.066406 18.816406 33.515625 17.980469 33.503906 17.964844 C 33.339844 17.757812 32.925781 17.113281 32.636719 17.09375 C 31.742188 17.039062 30.847656 16.992188 29.953125 16.949219 C 31.183594 16.878906 32.410156 16.808594 33.640625 16.734375 C 33.726562 16.730469 33.117188 15.828125 33.066406 15.765625 C 32.890625 15.554688 32.542969 15.011719 32.234375 15.011719 C 31.285156 15.003906 30.339844 15 29.394531 14.992188 C 30.730469 14.90625 32.066406 14.820312 33.40625 14.738281 C 33.492188 14.730469 32.878906 13.828125 32.828125 13.765625 C 32.6875 13.589844 32.4375 13.210938 32.179688 13.066406 C 32.726562 13.082031 33.269531 13.097656 33.816406 13.117188 C 33.890625 13.121094 33.347656 12.285156 33.332031 12.265625 C 33.167969 12.054688 32.765625 11.421875 32.46875 11.394531 C 30.765625 11.238281 29.0625 11.109375 27.355469 11.007812 C 29.382812 10.929688 31.414062 10.886719 33.445312 10.871094 C 33.527344 10.871094 32.972656 10.035156 32.960938 10.019531 C 32.800781 9.8125 32.386719 9.167969 32.097656 9.148438 C 29.886719 9.007812 27.675781 8.90625 25.46875 8.835938 C 28.875 8.734375 32.28125 8.742188 35.691406 8.863281 C 35.765625 8.863281 35.222656 8.027344 35.207031 8.007812 C 35.039062 7.792969 34.648438 7.175781 34.34375 7.140625 C 30.261719 6.652344 26.152344 6.476562 22.03125 6.464844 C 26.246094 6.164062 30.476562 6.015625 34.707031 6.019531 C 34.785156 6.019531 34.234375 5.183594 34.222656 5.167969 C 34.066406 4.96875 33.644531 4.3125 33.359375 4.296875 C 33.339844 4.296875 33.320312 4.296875 33.300781 4.296875 C 32.636719 4.265625 31.972656 4.242188 31.308594 4.21875 C 32.042969 4.175781 32.773438 4.128906 33.503906 4.078125 C 33.59375 4.070312 32.980469 3.167969 32.929688 3.109375 C 32.765625 2.902344 32.398438 2.34375 32.097656 2.351562 C 29.703125 2.429688 27.308594 2.554688 24.917969 2.710938 C 17.949219 2.90625 10.972656 2.648438 4.03125 1.9375 C 3.804688 1.914062 4.320312 2.617188 4.363281 2.671875 C 4.535156 2.902344 4.984375 3.625 5.316406 3.65625 C 6.847656 3.8125 8.378906 3.945312 9.914062 4.058594 C 7.667969 4.300781 5.425781 4.546875 3.179688 4.796875 C 3.082031 4.808594 3.703125 5.707031 3.753906 5.765625 C 3.914062 5.960938 4.292969 6.546875 4.585938 6.523438 C 4.902344 6.496094 5.222656 6.476562 5.539062 6.453125 C 4.375 6.636719 3.210938 6.828125 2.050781 7.035156 C 2.078125 7.070312 2.105469 7.105469 2.132812 7.140625 C 2.371094 7.507812 3.023438 8.773438 3.457031 8.761719 C 4.296875 8.734375 5.136719 8.707031 5.976562 8.679688 C 4.824219 8.84375 3.675781 9.019531 2.53125 9.210938 C 2.566406 9.253906 2.601562 9.296875 2.636719 9.339844 C 2.886719 9.742188 3.5 10.960938 3.9375 10.9375 C 5.410156 10.847656 6.882812 10.773438 8.355469 10.707031 C 6.539062 10.933594 4.726562 11.1875 2.921875 11.464844 C 2.960938 11.515625 3.003906 11.570312 3.046875 11.621094 C 3.28125 12.003906 3.753906 12.960938 4.164062 13.152344 C 3.855469 13.203125 3.542969 13.25 3.234375 13.304688 C 3.265625 13.34375 3.300781 13.386719 3.332031 13.425781 C 3.507812 13.703125 3.871094 14.402344 4.226562 14.78125 C 4.039062 14.792969 3.847656 14.804688 3.660156 14.816406 C 3.574219 14.820312 4.183594 15.722656 4.234375 15.785156 C 4.40625 15.996094 4.757812 16.539062 5.070312 16.539062 C 5.273438 16.542969 5.480469 16.542969 5.6875 16.542969 C 4.753906 16.597656 3.820312 16.652344 2.886719 16.707031 C 2.796875 16.710938 3.359375 17.542969 3.371094 17.558594 C 3.535156 17.769531 3.941406 18.402344 4.234375 18.429688 C 5.839844 18.558594 7.4375 18.566406 9.042969 18.546875 C 7.210938 18.761719 5.378906 18.996094 3.554688 19.257812 C 3.453125 19.269531 4.078125 20.164062 4.128906 20.226562 C 4.28125 20.414062 4.671875 21.007812 4.960938 20.980469 C 6.792969 20.800781 8.625 20.65625 10.460938 20.535156 C 10.515625 20.613281 10.554688 20.667969 10.5625 20.683594 "/>
</g>
<g clip-path="url(#clip21)" clip-rule="nonzero">
<path style=" stroke:none;fill-rule:nonzero;fill:rgb(9.799194%,16.079712%,57.249451%);fill-opacity:1;" d="M 26.933594 16.8125 C 26.773438 16.613281 26.398438 16.039062 26.101562 16.058594 C 22.339844 16.292969 18.574219 16.542969 14.8125 16.792969 C 11.261719 17.027344 7.734375 16.925781 4.171875 16.875 C 4.09375 16.875 4.644531 17.710938 4.65625 17.726562 C 4.816406 17.933594 5.226562 18.578125 5.519531 18.597656 C 5.734375 18.613281 5.945312 18.625 6.160156 18.640625 C 5.277344 18.65625 4.394531 18.671875 3.511719 18.679688 C 3.429688 18.679688 3.984375 19.515625 3.996094 19.53125 C 4.15625 19.734375 4.570312 20.382812 4.859375 20.402344 C 5.753906 20.457031 6.648438 20.503906 7.542969 20.546875 C 6.316406 20.617188 5.085938 20.6875 3.859375 20.757812 C 3.773438 20.765625 4.382812 21.664062 4.433594 21.726562 C 4.605469 21.941406 4.953125 22.480469 5.265625 22.484375 C 6.210938 22.488281 7.160156 22.496094 8.105469 22.503906 C 6.769531 22.589844 5.429688 22.671875 4.09375 22.757812 C 4.007812 22.765625 4.617188 23.664062 4.667969 23.726562 C 4.8125 23.902344 5.0625 24.28125 5.320312 24.425781 C 4.773438 24.414062 4.226562 24.398438 3.683594 24.375 C 3.609375 24.375 4.152344 25.210938 4.164062 25.230469 C 4.332031 25.441406 4.730469 26.070312 5.027344 26.097656 C 6.730469 26.257812 8.4375 26.386719 10.140625 26.488281 C 8.113281 26.5625 6.082031 26.609375 4.054688 26.621094 C 3.972656 26.621094 4.523438 27.460938 4.539062 27.476562 C 4.695312 27.679688 5.109375 28.328125 5.402344 28.34375 C 7.609375 28.488281 9.820312 28.589844 12.03125 28.660156 C 8.625 28.757812 5.214844 28.75 1.808594 28.632812 C 1.734375 28.628906 2.277344 29.46875 2.289062 29.484375 C 2.460938 29.703125 2.851562 30.316406 3.152344 30.355469 C 7.234375 30.839844 11.347656 31.015625 15.46875 31.03125 C 11.25 31.328125 7.023438 31.480469 2.792969 31.472656 C 2.710938 31.472656 3.261719 32.308594 3.273438 32.328125 C 3.429688 32.527344 3.855469 33.183594 4.140625 33.195312 C 4.160156 33.195312 4.179688 33.199219 4.199219 33.199219 C 4.863281 33.226562 5.523438 33.253906 6.1875 33.277344 C 5.457031 33.320312 4.726562 33.363281 3.992188 33.417969 C 3.90625 33.425781 4.519531 34.324219 4.566406 34.386719 C 4.734375 34.589844 5.097656 35.152344 5.402344 35.144531 C 7.796875 35.066406 10.1875 34.941406 12.578125 34.785156 C 19.546875 34.589844 26.523438 34.847656 33.46875 35.558594 C 33.695312 35.582031 33.175781 34.878906 33.136719 34.824219 C 32.964844 34.59375 32.511719 33.871094 32.179688 33.835938 C 30.648438 33.679688 29.117188 33.546875 27.585938 33.433594 C 29.828125 33.195312 32.074219 32.945312 34.316406 32.695312 C 34.414062 32.6875 33.792969 31.789062 33.742188 31.726562 C 33.585938 31.535156 33.207031 30.949219 32.910156 30.972656 C 32.59375 30.996094 32.277344 31.019531 31.960938 31.042969 C 33.125 30.859375 34.285156 30.664062 35.449219 30.457031 C 35.417969 30.425781 35.390625 30.390625 35.363281 30.355469 C 35.125 29.984375 34.472656 28.722656 34.039062 28.734375 C 33.203125 28.757812 32.363281 28.785156 31.523438 28.816406 C 32.671875 28.652344 33.820312 28.472656 34.964844 28.285156 C 34.933594 28.242188 34.898438 28.199219 34.863281 28.15625 C 34.609375 27.753906 33.996094 26.535156 33.558594 26.558594 C 32.085938 26.648438 30.613281 26.722656 29.144531 26.789062 C 30.957031 26.558594 32.769531 26.308594 34.578125 26.03125 C 34.535156 25.976562 34.492188 25.925781 34.449219 25.875 C 34.214844 25.492188 33.742188 24.535156 33.332031 24.34375 C 33.644531 24.292969 33.953125 24.242188 34.265625 24.191406 C 34.230469 24.148438 34.199219 24.109375 34.164062 24.070312 C 33.988281 23.789062 33.625 23.09375 33.273438 22.714844 C 33.460938 22.703125 33.648438 22.691406 33.835938 22.679688 C 33.925781 22.675781 33.3125 21.773438 33.261719 21.710938 C 33.089844 21.496094 32.742188 20.957031 32.429688 20.953125 C 32.222656 20.953125 32.015625 20.953125 31.808594 20.949219 C 32.742188 20.898438 33.675781 20.84375 34.609375 20.789062 C 34.699219 20.785156 34.136719 19.949219 34.128906 19.9375 C 33.964844 19.726562 33.554688 19.089844 33.261719 19.066406 C 31.65625 18.9375 30.058594 18.929688 28.457031 18.945312 C 30.289062 18.734375 32.117188 18.496094 33.945312 18.238281 C 34.046875 18.222656 33.417969 17.332031 33.371094 17.269531 C 33.214844 17.078125 32.828125 16.484375 32.539062 16.515625 C 30.707031 16.691406 28.871094 16.839844 27.035156 16.957031 C 26.984375 16.882812 26.945312 16.828125 26.933594 16.8125 "/>
</g>
<g clip-path="url(#clip22)" clip-rule="nonzero">
<path style=" stroke:none;fill-rule:nonzero;fill:rgb(100%,100%,100%);fill-opacity:1;" d="M 12.917969 11.25 C 11.996094 11.25 11.25 11.996094 11.25 12.917969 L 11.25 24.582031 C 11.25 25.503906 11.996094 26.25 12.917969 26.25 L 24.582031 26.25 C 25.503906 26.25 26.25 25.503906 26.25 24.582031 L 26.25 12.917969 C 26.25 11.996094 25.503906 11.25 24.582031 11.25 Z M 12.917969 12.917969 L 24.582031 12.917969 L 24.582031 24.582031 L 12.917969 24.582031 Z M 15.234375 14.011719 C 14.519531 14.011719 14.089844 14.441406 14.089844 15.015625 C 14.089844 15.585938 14.519531 16.015625 15.160156 16.015625 C 15.875 16.015625 16.304688 15.585938 16.304688 15.015625 C 16.304688 14.441406 15.875 14.011719 15.234375 14.011719 Z M 14.148438 17.082031 L 14.148438 22.917969 L 16.25 22.917969 L 16.25 17.082031 Z M 17.984375 17.082031 L 17.984375 22.917969 L 20.085938 22.917969 L 20.085938 19.726562 C 20.085938 18.777344 20.765625 18.640625 20.96875 18.640625 C 21.171875 18.640625 21.714844 18.847656 21.714844 19.726562 L 21.714844 22.917969 L 23.75 22.917969 L 23.75 19.726562 C 23.75 17.898438 22.9375 17.082031 21.917969 17.082031 C 20.902344 17.082031 20.359375 17.421875 20.085938 17.898438 L 20.085938 17.082031 Z M 17.984375 17.082031 "/>
</g>
</g>
</svg>
